<svg width="220" height="40" viewBox="0 0 220 40" fill="none" xmlns="http://www.w3.org/2000/svg">
<path d="M0 17.9766H12.57C14.6734 17.9766 16.27 18.4882 17.3851 19.537C18.5002 20.5858 19.0577 21.8905 19.0577 23.4253C19.0577 24.73 18.6522 25.83 17.8666 26.7509C17.3344 27.3648 16.5488 27.8509 15.5351 28.209C17.1063 28.5927 18.2467 29.2322 18.9817 30.1532C19.7166 31.0741 20.0968 32.2252 20.0968 33.6322C20.0968 34.7577 19.8433 35.781 19.3111 36.7019C18.7789 37.5972 18.0693 38.3391 17.157 38.8507C16.5995 39.1833 15.7378 39.4135 14.5974 39.567C13.0768 39.7716 12.0885 39.874 11.5816 39.874H0V17.9766ZM6.7665 26.5974H9.68091C10.72 26.5974 11.4549 26.4183 11.8604 26.0602C12.2659 25.702 12.4686 25.1648 12.4686 24.4742C12.4686 23.8346 12.2659 23.3486 11.8604 22.9905C11.4549 22.6323 10.7453 22.4532 9.70625 22.4532H6.74116V26.5974H6.7665ZM6.7665 35.2182H10.1878C11.3535 35.2182 12.1645 35.0136 12.646 34.6043C13.1275 34.195 13.3556 33.6322 13.3556 32.9415C13.3556 32.302 13.1275 31.7648 12.646 31.381C12.1645 30.9973 11.3535 30.7927 10.1878 30.7927H6.7665V35.2182Z" fill="#453E38"/>
<path d="M21.6426 39.9251V17.9766H32.8441C34.9222 17.9766 36.4934 18.1556 37.6085 18.5138C38.6982 18.8719 39.5852 19.537 40.2695 20.5091C40.9537 21.4812 41.2832 22.6579 41.2832 24.0649C41.2832 25.2927 41.0297 26.3416 40.5229 27.2113C40.016 28.1067 39.3064 28.7974 38.3941 29.3601C37.8112 29.7183 37.0256 29.9997 36.0372 30.2299C36.8482 30.5113 37.4311 30.7671 37.7859 31.0485C38.0393 31.2276 38.3941 31.6113 38.8503 32.1996C39.3318 32.788 39.6359 33.2485 39.788 33.5554L43.0318 39.8995H35.4544L31.8557 33.1973C31.3995 32.3275 30.994 31.7648 30.6392 31.5089C30.1577 31.1764 29.6002 30.9973 28.992 30.9973H28.4091V39.9251H21.6426ZM28.4091 26.8788H31.2475C31.5516 26.8788 32.1345 26.7765 33.0215 26.5718C33.4776 26.4695 33.8324 26.2648 34.1112 25.8811C34.39 25.523 34.542 25.0881 34.542 24.6021C34.542 23.8858 34.3139 23.3486 33.8831 22.9649C33.4269 22.5812 32.5906 22.4021 31.3742 22.4021H28.4344V26.8788H28.4091Z" fill="#453E38"/>
<path d="M58.7948 36.2926H51.1666L50.1022 39.9251H43.2344L51.3947 17.9766H58.7188L66.8791 39.9251H59.8592L58.7948 36.2926ZM57.4009 31.5601L54.9934 23.6811L52.6112 31.5601H57.4009Z" fill="#453E38"/>
<path d="M59.9102 17.9766H66.9301L71.8212 33.7857L76.6617 18.0021H83.4789L75.3945 39.9251H68.1212L59.9102 17.9766Z" fill="#453E38"/>
<path d="M83.3769 17.9766H101.37V22.6579H90.0927V26.1369H100.534V30.6136H90.0927V34.9368H101.674V39.9251H83.3516V17.9766H83.3769Z" fill="#453E38"/>
<path d="M101.802 17.9237H108.442L110.824 30.2282L114.321 17.9237H120.935L124.433 30.2282L126.815 17.9237L136.699 7.17969L128.437 39.9235H121.594L117.641 26.0841L113.687 39.9235H106.845L101.802 17.9237Z" fill="#453E38"/>
<path d="M135.711 17.9766H142.427V25.6509H149.776V17.9766H156.517V39.9251H149.776V31.0485H142.427V39.9251H135.711V17.9766Z" fill="#453E38"/>
<path d="M202.792 17.9766H209.508V34.5019H220V39.9251H202.792V17.9766Z" fill="#453E38"/>
<path fill-rule="evenodd" clip-rule="evenodd" d="M182.327 6.79478C183.234 6.98258 188.133 8.45419 186.401 7.89985L189.131 8.9544L190.674 9.79947C193.214 11.2079 196.342 15.0097 191.726 16.4726C187.843 17.7027 182.425 15.7928 181.452 19.9168L187 22.5622C189.769 20.5141 193 20.5109 197.576 21.7478C193.824 21.3366 192.36 21.6706 190.5 24.1007L192.5 25.6391C194 26.6648 195.5 27.6904 196 28.2032C195 27.6904 194.789 27.8099 190 25.1263C189 27.498 190 32.998 193 35.498C195.716 37.7615 201.5 36.998 202 32.7608C202 39.998 188.075 44.498 185 31.498C184.221 28.2032 184.5 25.498 186.5 22.998C184.752 22.2056 183.797 21.8397 181.63 21.434C182.202 24.9345 183.639 27.3552 184.25 30.1833C182.222 27.9215 178.484 20.9075 177.867 20.5976L171.776 20.3037C171.652 20.2774 171.54 20.2378 171.434 20.2059L177.595 19.283C174.548 15.3394 176.018 15.2257 185.246 13.0961C184.047 11.975 181.763 11.3947 179.823 11.0341C176.29 10.3787 176.457 10.4276 174.648 12.4276C171.483 15.928 170.623 15.3394 165.075 14.5722C173.476 14.7299 171.3 9.7853 175.016 7.44351C177.372 5.95995 179.061 6.3253 182.327 6.79478Z" fill="#FF6F1E"/>
<path fill-rule="evenodd" clip-rule="evenodd" d="M169.471 16.8984C168.878 19.8561 167.633 26.7969 166.287 29.2965L166.958 21.4035C160 22.5037 161.823 29.2965 163.26 32.6798C167.501 39.938 174.853 36.1726 176 32.8242C175.046 35.8777 170.616 40.1566 166.434 39.8749C159.794 39.426 154.71 30.8213 158.141 24.0382C159.751 20.8552 162.583 20.2674 167.054 20.6692L167.401 16.936L169.471 16.8984Z" fill="#FF6F1E"/>
<path fill-rule="evenodd" clip-rule="evenodd" d="M185.565 32.6763C185.547 34.1091 186.452 33.3835 185 33.853C184.093 34.0408 181.81 34.5523 180.48 32.9373C178.254 30.2331 181.077 30.2725 177.76 27.8932C176.931 27.2979 176.149 26.6049 175.53 26.0641C173.986 24.7101 169.831 22.1373 169.283 20.4453C170.981 20.8547 178.931 27.035 180.773 28.5167C181.045 32.158 180.232 33.7354 185.565 32.6763Z" fill="#FF6F1E"/>
<ellipse cx="2.8125" cy="3.47418" rx="2.8125" ry="3.47418" transform="matrix(-1 0 0 1 175.508 1.3125)" fill="#FF6F1E"/>
</svg>
