<svg width="52" height="52" viewBox="0 0 52 52" fill="none" xmlns="http://www.w3.org/2000/svg">
<g id="category">
<mask id="mask0_333_10167" style="mask-type:alpha" maskUnits="userSpaceOnUse" x="0" y="0" width="52" height="52">
<rect id="Bounding box" width="52" height="52" fill="#D9D9D9"/>
</mask>
<g mask="url(#mask0_333_10167)">
<path id="category_2" d="M17.1579 24.6L25.2632 12L33.3684 24.6H17.1579ZM33.3684 40C31.5263 40 29.9605 39.3875 28.6711 38.1625C27.3816 36.9375 26.7368 35.45 26.7368 33.7C26.7368 31.95 27.3816 30.4625 28.6711 29.2375C29.9605 28.0125 31.5263 27.4 33.3684 27.4C35.2105 27.4 36.7763 28.0125 38.0658 29.2375C39.3553 30.4625 40 31.95 40 33.7C40 35.45 39.3553 36.9375 38.0658 38.1625C36.7763 39.3875 35.2105 40 33.3684 40ZM12 39.3V28.1H23.7895V39.3H12ZM33.3684 37.2C34.4 37.2 35.2719 36.8617 35.9842 36.185C36.6965 35.5083 37.0526 34.68 37.0526 33.7C37.0526 32.72 36.6965 31.8917 35.9842 31.215C35.2719 30.5383 34.4 30.2 33.3684 30.2C32.3368 30.2 31.4649 30.5383 30.7526 31.215C30.0404 31.8917 29.6842 32.72 29.6842 33.7C29.6842 34.68 30.0404 35.5083 30.7526 36.185C31.4649 36.8617 32.3368 37.2 33.3684 37.2ZM14.9474 36.5H20.8421V30.9H14.9474V36.5ZM22.3895 21.8H28.1368L25.2632 17.39L22.3895 21.8Z" fill="#453E38"/>
</g>
</g>
</svg>
