<svg width="52" height="52" viewBox="0 0 52 52" fill="none" xmlns="http://www.w3.org/2000/svg">
<mask id="mask0_73_350" style="mask-type:alpha" maskUnits="userSpaceOnUse" x="0" y="0" width="52" height="52">
<rect width="52" height="52" fill="#D9D9D9"/>
</mask>
<g mask="url(#mask0_73_350)">
<path d="M10.8333 36.8307C7.76389 36.8307 5.19097 35.7925 3.11458 33.7161C1.03819 31.6398 0 29.0668 0 25.9974C0 22.928 1.05625 20.355 3.16875 18.2786C5.28125 16.2023 7.83611 15.1641 10.8333 15.1641C13.6139 15.1641 15.9521 15.9946 17.8479 17.6557C19.7438 19.3168 20.9444 21.3752 21.45 23.8307H22.8583L18.9583 12.9974H15.1667V8.66406H26V12.9974H23.6167L24.375 15.1641H34.775L31.6333 6.4974H26V2.16406H31.6333C32.5722 2.16406 33.4118 2.41684 34.1521 2.9224C34.8924 3.42795 35.425 4.11406 35.75 4.98073L39.4333 15.0557H41.1667C44.1639 15.0557 46.7188 16.112 48.8313 18.2245C50.9438 20.337 52 22.8918 52 25.8891C52 28.9224 50.9528 31.5043 48.8583 33.6349C46.7639 35.7655 44.2 36.8307 41.1667 36.8307C38.5667 36.8307 36.2826 36.0182 34.3146 34.3932C32.3465 32.7682 31.0917 30.6918 30.55 28.1641H21.45C20.9444 30.6557 19.7167 32.7231 17.7667 34.3661C15.8167 36.0092 13.5056 36.8307 10.8333 36.8307ZM10.8333 32.4974C12.3139 32.4974 13.5868 32.0911 14.6521 31.2786C15.7174 30.4661 16.4667 29.428 16.9 28.1641H10.8333V23.8307H16.9C16.4667 22.5307 15.7174 21.4835 14.6521 20.6891C13.5868 19.8946 12.3139 19.4974 10.8333 19.4974C8.99167 19.4974 7.44792 20.1203 6.20208 21.3661C4.95625 22.612 4.33333 24.1557 4.33333 25.9974C4.33333 27.803 4.95625 29.3377 6.20208 30.6016C7.44792 31.8655 8.99167 32.4974 10.8333 32.4974ZM27.5167 23.8307H30.55C30.7306 23.0002 30.9743 22.2238 31.2813 21.5016C31.5882 20.7793 31.9944 20.1113 32.5 19.4974H25.8917L27.5167 23.8307ZM41.1667 32.4974C43.0083 32.4974 44.5521 31.8655 45.7979 30.6016C47.0438 29.3377 47.6667 27.803 47.6667 25.9974C47.6667 24.1557 47.0438 22.612 45.7979 21.3661C44.5521 20.1203 43.0083 19.4974 41.1667 19.4974H40.95L43.1167 25.2391L39 26.7557L36.9417 21.0141C36.2194 21.628 35.6597 22.3502 35.2625 23.1807C34.8653 24.0113 34.6667 24.9502 34.6667 25.9974C34.6667 27.803 35.2896 29.3377 36.5354 30.6016C37.7813 31.8655 39.325 32.4974 41.1667 32.4974ZM28.1667 49.8307L15.1667 43.3307H23.8333V38.9974L36.8333 45.4974H28.1667V49.8307Z" fill="#FF6F1E"/>
</g>
</svg>
