<svg width="32" height="32" viewBox="0 0 32 32" fill="none" xmlns="http://www.w3.org/2000/svg">
<path d="M27.12 32C23.7867 32 20.4933 31.2733 17.24 29.82C13.9867 28.3667 11.0267 26.3067 8.36 23.64C5.69333 20.9733 3.63333 18.0133 2.18 14.76C0.726667 11.5067 0 8.21333 0 4.88C0 4.4 0.16 4 0.48 3.68C0.8 3.36 1.2 3.2 1.68 3.2H8.16C8.53333 3.2 8.86667 3.32667 9.16 3.58C9.45333 3.83333 9.62667 4.13333 9.68 4.48L10.72 10.08C10.7733 10.5067 10.76 10.8667 10.68 11.16C10.6 11.4533 10.4533 11.7067 10.24 11.92L6.36 15.84C6.89333 16.8267 7.52667 17.78 8.26 18.7C8.99333 19.62 9.8 20.5067 10.68 21.36C11.5067 22.1867 12.3733 22.9533 13.28 23.66C14.1867 24.3667 15.1467 25.0133 16.16 25.6L19.92 21.84C20.16 21.6 20.4733 21.42 20.86 21.3C21.2467 21.18 21.6267 21.1467 22 21.2L27.52 22.32C27.8933 22.4267 28.2 22.62 28.44 22.9C28.68 23.18 28.8 23.4933 28.8 23.84V30.32C28.8 30.8 28.64 31.2 28.32 31.52C28 31.84 27.6 32 27.12 32ZM4.84 12.8L7.48 10.16L6.8 6.4H3.24C3.37333 7.49333 3.56 8.57333 3.8 9.64C4.04 10.7067 4.38667 11.76 4.84 12.8ZM19.16 27.12C20.2 27.5733 21.26 27.9333 22.34 28.2C23.42 28.4667 24.5067 28.64 25.6 28.72V25.2L21.84 24.44L19.16 27.12ZM24 16C21.7867 16 19.9 15.22 18.34 13.66C16.78 12.1 16 10.2133 16 8C16 5.78667 16.78 3.9 18.34 2.34C19.9 0.78 21.7867 0 24 0C26.2133 0 28.1 0.78 29.66 2.34C31.22 3.9 32 5.78667 32 8C32 10.2133 31.22 12.1 29.66 13.66C28.1 15.22 26.2133 16 24 16ZM23.2 12.8H24.8V6.4H23.2V12.8ZM24 4.8C24.2133 4.8 24.4 4.72 24.56 4.56C24.72 4.4 24.8 4.21333 24.8 4C24.8 3.78667 24.72 3.6 24.56 3.44C24.4 3.28 24.2133 3.2 24 3.2C23.7867 3.2 23.6 3.28 23.44 3.44C23.28 3.6 23.2 3.78667 23.2 4C23.2 4.21333 23.28 4.4 23.44 4.56C23.6 4.72 23.7867 4.8 24 4.8Z" fill="#EA661B"/>
</svg>
