<svg width="48" height="30" viewBox="0 0 48 30" fill="none" xmlns="http://www.w3.org/2000/svg">
<path d="M0 0H48V30H0V0Z" fill="white"/>
<path d="M27.6291 15.0044C27.6291 20.953 22.6832 25.7744 16.5823 25.7744C10.4814 25.7744 5.53613 20.9527 5.53613 15.0044C5.53613 9.0564 10.4815 4.23438 16.5823 4.23438C22.683 4.23438 27.6291 9.05658 27.6291 15.0044Z" fill="#453E38"/>
<path d="M31.4142 4.22656C28.56 4.22656 25.9592 5.28232 23.9988 7.01452C23.5994 7.36786 23.2266 7.74874 22.8834 8.15428H25.1152C25.4208 8.5165 25.702 8.89756 25.9573 9.29506H22.0413C21.8058 9.66232 21.5933 10.0432 21.4049 10.4355H26.5934C26.7714 10.8066 26.9276 11.1873 27.0611 11.5758H20.9373C20.8086 11.9499 20.7014 12.3306 20.6162 12.7163H27.3818C27.5472 13.4657 27.6306 14.2302 27.6304 14.9968C27.6304 16.1928 27.4302 17.3436 27.061 18.418H20.9371C21.0703 18.8067 21.2264 19.1875 21.4045 19.5586H26.5933C26.4047 19.951 26.192 20.3319 25.9565 20.6994H22.0411C22.2968 21.0971 22.5784 21.4781 22.8833 21.8391H25.1146C24.7718 22.2455 24.3989 22.6267 23.9989 22.9799C25.9595 24.7119 28.56 25.7671 31.4142 25.7671C37.515 25.767 42.461 20.9454 42.461 14.9971C42.461 9.0493 37.5152 4.2271 31.4142 4.2271" fill="#6D625A"/>
<path d="M40.991 21.0054C40.991 20.8133 41.1505 20.6573 41.3476 20.6573C41.5448 20.6573 41.7043 20.8133 41.7043 21.0054C41.7043 21.1973 41.5448 21.3533 41.3476 21.3533C41.1506 21.3532 40.9909 21.1974 40.991 21.0054ZM41.3476 21.2698C41.4975 21.2698 41.6188 21.1513 41.6189 21.0054C41.6189 20.8594 41.4975 20.7411 41.3479 20.7411H41.3476C41.1982 20.7409 41.0769 20.8589 41.0766 21.0046V21.0054C41.0764 21.1513 41.1977 21.2698 41.3473 21.2699C41.3474 21.2698 41.3475 21.2698 41.3476 21.2698ZM41.2995 21.1582H41.2263V20.8526H41.3586C41.3863 20.8526 41.4145 20.8526 41.4389 20.8678C41.4643 20.8845 41.4787 20.914 41.4787 20.9445C41.4787 20.9787 41.4579 21.0108 41.4243 21.0232L41.482 21.1582H41.4011L41.3531 21.0373H41.2995L41.2995 21.1582ZM41.2995 20.9848H41.3399C41.3551 20.9848 41.371 20.986 41.3846 20.9788C41.3966 20.9713 41.4028 20.9573 41.4028 20.9438C41.4028 20.9321 41.3954 20.9186 41.3851 20.9128C41.3723 20.905 41.3521 20.9068 41.3384 20.9068H41.2995V20.9848ZM14.0071 16.1811C13.8813 16.1668 13.8259 16.163 13.7395 16.163C13.0598 16.163 12.7156 16.3903 12.7156 16.8391C12.7156 17.1157 12.8836 17.2918 13.1456 17.2918C13.6341 17.2918 13.9862 16.8382 14.0071 16.1811ZM14.8792 18.1608H13.8856L13.9084 17.7003C13.6054 18.0643 13.201 18.2373 12.6515 18.2373C12.0015 18.2373 11.5559 17.7423 11.5559 17.0235C11.5559 15.9421 12.331 15.3111 13.6615 15.3111C13.7974 15.3111 13.9718 15.3231 14.1502 15.3453C14.1875 15.1988 14.1972 15.1361 14.1972 15.0573C14.1972 14.7628 13.9882 14.653 13.4279 14.653C12.8413 14.6465 12.3574 14.7892 12.1587 14.853C12.1713 14.7792 12.3249 13.8535 12.3249 13.8535C12.9225 13.6828 13.3167 13.6185 13.7603 13.6185C14.79 13.6185 15.3354 14.0692 15.3344 14.9212C15.3364 15.1495 15.2977 15.4312 15.2372 15.8015C15.1331 16.4454 14.9098 17.8246 14.8792 18.1608ZM11.0541 18.1608H9.85484L10.5418 13.961L9.00795 18.1608H8.19072L8.08979 13.985L7.3677 18.1608H6.24512L7.18284 12.6976H8.90715L9.01176 15.7555L10.0636 12.6976H11.9815L11.0541 18.1608ZM32.899 16.1811C32.7737 16.1668 32.718 16.163 32.6318 16.163C31.9524 16.163 31.6082 16.3903 31.6082 16.8391C31.6082 17.1157 31.7759 17.2918 32.0379 17.2918C32.5265 17.2918 32.8788 16.8382 32.899 16.1811ZM33.7718 18.1608H32.7783L32.8007 17.7003C32.4977 18.0643 32.0931 18.2373 31.5441 18.2373C30.8939 18.2373 30.4487 17.7423 30.4487 17.0235C30.4487 15.9421 31.2233 15.3111 32.5541 15.3111C32.69 15.3111 32.8641 15.3231 33.0423 15.3453C33.0795 15.1988 33.0893 15.1361 33.0893 15.0573C33.0893 14.7628 32.8806 14.653 32.3203 14.653C31.7337 14.6465 31.2503 14.7892 31.0508 14.853C31.0634 14.7792 31.2175 13.8535 31.2175 13.8535C31.8152 13.6828 32.2091 13.6185 32.6521 13.6185C33.6823 13.6185 34.2277 14.0692 34.2267 14.9212C34.2287 15.1495 34.19 15.4312 34.1295 15.8015C34.026 16.4454 33.8021 17.8246 33.7718 18.1608ZM20.2094 18.0933C19.8811 18.1941 19.6252 18.2373 19.3478 18.2373C18.7347 18.2373 18.4001 17.8938 18.4001 17.2612C18.3914 17.065 18.4883 16.5485 18.5644 16.077C18.6337 15.662 19.0844 13.0452 19.0844 13.0452H20.2765L20.1373 13.7178H20.8573L20.6947 14.7855H19.9721C19.8336 15.6305 19.6364 16.683 19.6342 16.8225C19.6342 17.0515 19.7595 17.1515 20.0446 17.1515C20.1813 17.1515 20.2871 17.1379 20.368 17.1095L20.2094 18.0933ZM23.8642 18.0573C23.4547 18.1793 23.0596 18.2383 22.6409 18.2373C21.3065 18.2361 20.6109 17.5566 20.6109 16.2554C20.6109 14.7366 21.4958 13.6186 22.6971 13.6186C23.6798 13.6186 24.3075 14.2446 24.3075 15.2263C24.3075 15.5521 24.2644 15.8701 24.1606 16.3191H21.7868C21.7065 16.9636 22.1295 17.2321 22.8229 17.2321C23.2497 17.2321 23.6345 17.1463 24.0624 16.9523L23.8642 18.0573ZM23.1942 15.4233C23.2008 15.3307 23.3206 14.6303 22.6396 14.6303C22.2598 14.6303 21.9883 14.9125 21.8777 15.4233H23.1942ZM15.5991 15.1223C15.5991 15.6843 15.8786 16.0718 16.5124 16.3629C16.9981 16.5854 17.0732 16.6514 17.0732 16.8531C17.0732 17.1301 16.8591 17.2551 16.3845 17.2551C16.0268 17.2551 15.694 17.2006 15.3102 17.0799C15.3102 17.0799 15.1524 18.0591 15.1452 18.1059C15.4179 18.1639 15.6609 18.2176 16.3932 18.2373C17.6586 18.2373 18.243 17.7676 18.243 16.7523C18.243 16.1418 17.9983 15.7836 17.3976 15.5143C16.8948 15.2893 16.8371 15.2391 16.8371 15.0316C16.8371 14.7913 17.0363 14.6688 17.424 14.6688C17.6594 14.6688 17.9809 14.6933 18.2855 14.7356L18.4563 13.7051C18.1458 13.6571 17.675 13.6186 17.4009 13.6186C16.0594 13.6186 15.595 14.3018 15.5991 15.1223ZM29.697 13.7353C30.0301 13.7353 30.3406 13.8205 30.7686 14.0305L30.9647 12.8448C30.7891 12.7776 30.1706 12.3828 29.6468 12.3828C28.8442 12.3828 28.1658 12.771 27.6886 13.4118C26.9926 13.1871 26.7065 13.6413 26.3558 14.0938L26.0443 14.1646C26.0678 14.0156 26.0892 13.8676 26.082 13.7178H24.9807C24.8302 15.0928 24.5635 16.4856 24.3548 17.8623L24.3004 18.1609H25.5001C25.7004 16.8923 25.8102 16.08 25.8768 15.5304L26.3286 15.2853C26.3961 15.0405 26.6073 14.9578 27.0311 14.9678C26.9742 15.2683 26.9457 15.5732 26.946 15.8788C26.946 17.3323 27.7504 18.2373 29.0414 18.2373C29.374 18.2373 29.6594 18.1946 30.1012 18.0779L30.3123 16.8323C29.9148 17.0231 29.5886 17.1129 29.2932 17.1129C28.5961 17.1129 28.1742 16.6111 28.1742 15.7818C28.1742 14.5788 28.8016 13.7353 29.697 13.7353Z" fill="black"/>
<path d="M11.3969 17.8375H10.1974L10.8848 13.6382L9.35097 17.8375H8.53361L8.43257 13.6622L7.71054 17.8375H6.58789L7.52561 12.375H9.24992L9.29841 15.7567L10.4617 12.375H12.3243L11.3969 17.8375Z" fill="white"/>
<path d="M39.8476 12.6953L39.5818 14.2738C39.2538 13.8531 38.9016 13.5486 38.4364 13.5486C37.8313 13.5486 37.2805 13.9958 36.92 14.6541C36.418 14.5526 35.8987 14.3803 35.8987 14.3803L35.8984 14.3843C35.9389 14.0163 35.955 13.7918 35.9515 13.7156H34.8499C34.7 15.0906 34.4333 16.4834 34.2249 17.8601L34.1699 18.1586H35.3694C35.5315 17.1328 35.6556 16.281 35.7468 15.6056C36.1566 15.2445 36.3617 14.9295 36.7758 14.9505C36.5925 15.3829 36.4851 15.8808 36.4851 16.3916C36.4851 17.5023 37.0615 18.2351 37.9333 18.2351C38.3728 18.2351 38.7099 18.0873 39.0389 17.7449L38.9828 18.1579H40.1171L41.0305 12.6953H39.8476ZM38.3479 17.1318C37.9396 17.1318 37.7336 16.8373 37.7336 16.256C37.7336 15.3828 38.1195 14.7635 38.6635 14.7635C39.0755 14.7635 39.2986 15.0698 39.2986 15.634C39.2987 16.5149 38.9067 17.1318 38.3479 17.1318Z" fill="black"/>
<path d="M14.3492 15.8547C14.2235 15.8405 14.1679 15.8367 14.0818 15.8367C13.402 15.8367 13.0581 16.0639 13.0581 16.5127C13.0581 16.7889 13.2261 16.9655 13.4877 16.9655C13.9766 16.9654 14.3287 16.512 14.3492 15.8547ZM15.2218 17.8337H14.2282L14.2507 17.3739C13.9479 17.7372 13.5431 17.9109 12.9941 17.9109C12.3438 17.9109 11.8984 17.4159 11.8984 16.6972C11.8984 15.6153 12.6733 14.9847 14.004 14.9847C14.14 14.9847 14.3143 14.9967 14.4925 15.0189C14.5297 14.8724 14.5394 14.8097 14.5394 14.7304C14.5394 14.436 14.3307 14.3266 13.7704 14.3266C13.1835 14.3202 12.7 14.463 12.501 14.526C12.5135 14.4524 12.6671 13.5277 12.6671 13.5277C13.2646 13.3562 13.6592 13.2919 14.1023 13.2919C15.1323 13.2919 15.6779 13.743 15.6769 14.5942C15.6787 14.8234 15.6397 15.1049 15.5794 15.4747C15.4756 16.1182 15.252 17.4982 15.2218 17.8337ZM31.3067 12.5182L31.1103 13.7042C30.6826 13.4944 30.3718 13.4089 30.0391 13.4089C29.1436 13.4089 28.516 14.2524 28.516 15.4554C28.516 16.2846 28.938 16.7862 29.6349 16.7862C29.9303 16.7862 30.2562 16.6967 30.6536 16.5056L30.4432 17.7506C30.0011 17.8681 29.716 17.9109 29.3831 17.9109C28.0923 17.9109 27.2877 17.0059 27.2877 15.5524C27.2877 13.5994 28.3991 12.2344 29.9885 12.2344C30.512 12.2344 31.1308 12.4509 31.3067 12.5182ZM33.2416 15.8547C33.116 15.8405 33.0606 15.8367 32.9741 15.8367C32.2946 15.8367 31.9505 16.0639 31.9505 16.5127C31.9505 16.7889 32.1184 16.9655 32.3803 16.9655C32.8687 16.9654 33.221 16.512 33.2416 15.8547ZM34.1141 17.8337H33.1203L33.1431 17.3739C32.84 17.7372 32.4354 17.9109 31.8864 17.9109C31.2364 17.9109 30.7908 17.4159 30.7908 16.6972C30.7908 15.6153 31.5659 14.9847 32.8962 14.9847C33.0324 14.9847 33.2064 14.9967 33.3848 15.0189C33.4218 14.8724 33.4318 14.8097 33.4318 14.7304C33.4318 14.436 33.2231 14.3266 32.6628 14.3266C32.0762 14.3202 31.5923 14.463 31.3933 14.526C31.4059 14.4524 31.5597 13.5277 31.5597 13.5277C32.1572 13.3562 32.5515 13.2919 32.9946 13.2919C34.0248 13.2919 34.5702 13.743 34.5689 14.5942C34.571 14.8234 34.5323 15.1049 34.4717 15.4747C34.3682 16.1182 34.1441 17.4982 34.1141 17.8337ZM20.5517 17.7664C20.2232 17.8672 19.9673 17.9109 19.6901 17.9109C19.077 17.9109 18.7424 17.5674 18.7424 16.935C18.7339 16.7381 18.8309 16.2221 18.9071 15.7507C18.976 15.3351 19.4268 12.7187 19.4268 12.7187H20.6186L20.4796 13.3914H21.0914L20.9286 14.4587H20.3147C20.1763 15.3042 19.9786 16.3558 19.9765 16.4956C19.9765 16.7254 20.1022 16.8246 20.3871 16.8246C20.5237 16.8246 20.6294 16.8116 20.7104 16.7831L20.5517 17.7664ZM24.2066 17.7309C23.7973 17.8529 23.4016 17.9117 22.9832 17.9109C21.6488 17.9097 20.9532 17.2302 20.9532 15.9289C20.9532 14.4097 21.8381 13.2919 23.0394 13.2919C24.0221 13.2919 24.6498 13.9177 24.6498 14.8999C24.6498 15.2259 24.6067 15.5439 24.5032 15.9927H22.1294C22.049 16.6371 22.4721 16.9059 23.1655 16.9059C23.592 16.9059 23.9771 16.8199 24.4047 16.6254L24.2066 17.7309ZM23.5363 15.0962C23.5435 15.0039 23.663 14.3032 22.9816 14.3032C22.6022 14.3032 22.3306 14.5862 22.2201 15.0962H23.5363ZM15.9412 14.796C15.9412 15.3579 16.2207 15.7449 16.8546 16.0365C17.3402 16.2589 17.4153 16.3252 17.4153 16.5267C17.4153 16.8037 17.201 16.9287 16.7269 16.9287C16.3689 16.9287 16.0361 16.8742 15.652 16.7535C15.652 16.7535 15.4948 17.7327 15.4877 17.7795C15.7597 17.8375 16.003 17.8905 16.7353 17.9109C18.001 17.9109 18.5851 17.4412 18.5851 16.4262C18.5851 15.8154 18.3407 15.4572 17.7397 15.1879C17.2371 14.9625 17.1789 14.913 17.1789 14.7052C17.1789 14.4652 17.3786 14.3417 17.7661 14.3417C18.0012 14.3417 18.3227 14.3669 18.6279 14.4092L18.7984 13.3784C18.4882 13.3304 18.0174 13.2919 17.7432 13.2919C16.4015 13.2919 15.9374 13.9747 15.9412 14.796ZM40.4612 17.8337H39.3266L39.3831 17.4201C39.054 17.7631 38.7169 17.9109 38.2774 17.9109C37.4055 17.9109 36.8294 17.1781 36.8294 16.0674C36.8294 14.5896 37.723 13.3438 38.7807 13.3438C39.2458 13.3438 39.598 13.5291 39.9256 13.9496L40.1917 12.3711H41.3746L40.4612 17.8337ZM38.6923 16.8072C39.2508 16.8072 39.6431 16.1902 39.6431 15.31C39.6431 14.7457 39.4197 14.4394 39.0077 14.4394C38.4638 14.4394 38.0775 15.0585 38.0775 15.9319C38.0774 16.5131 38.284 16.8072 38.6923 16.8072ZM35.1943 13.3914C35.0442 14.7664 34.7775 16.1592 34.5689 17.5352L34.5141 17.8337H35.7135C36.1425 15.1172 36.2463 14.5867 36.9189 14.6532C37.0261 14.0972 37.2255 13.6102 37.3743 13.3644C36.8719 13.2624 36.5914 13.5392 36.2242 14.0649C36.2532 13.8377 36.3063 13.617 36.2958 13.3914H35.1943ZM25.3223 13.3914C25.1717 14.7664 24.905 16.1592 24.6966 17.5352L24.642 17.8337H25.842C26.2704 15.1172 26.3741 14.5867 27.0463 14.6532C27.1539 14.0972 27.3535 13.6102 27.5016 13.3644C26.9999 13.2624 26.7191 13.5392 26.3522 14.0649C26.3811 13.8377 26.4338 13.617 26.4237 13.3914H25.3223ZM40.9881 17.4859C40.9881 17.2931 41.1479 17.1379 41.3448 17.1379C41.5415 17.1378 41.7012 17.2932 41.7014 17.485V17.4859C41.7013 17.6779 41.5417 17.8336 41.3448 17.8337C41.1479 17.8336 40.9882 17.6779 40.9881 17.4859ZM41.3448 17.7502C41.4944 17.7502 41.6157 17.632 41.6157 17.4861V17.486C41.6159 17.34 41.4946 17.2216 41.345 17.2215H41.3448C41.1949 17.2216 41.0735 17.34 41.0735 17.486C41.0736 17.6319 41.1951 17.7502 41.3448 17.7502ZM41.2965 17.638H41.2234V17.3329H41.356C41.3834 17.3329 41.4119 17.3334 41.4357 17.3482C41.4613 17.3652 41.476 17.3942 41.476 17.4246C41.476 17.4591 41.4552 17.4914 41.4213 17.5036L41.4792 17.6378H41.3981L41.3501 17.5173H41.2965V17.6378V17.638ZM41.2965 17.4652H41.3368C41.3519 17.4652 41.3684 17.4663 41.3816 17.4592C41.3936 17.4517 41.3998 17.4375 41.3998 17.424C41.3992 17.4114 41.3927 17.3997 41.3821 17.3925C41.3696 17.3855 41.3488 17.3874 41.3352 17.3874H41.2965L41.2965 17.4652Z" fill="white"/>
</svg>
