<svg width="30" height="30" viewBox="0 0 30 30" fill="none" xmlns="http://www.w3.org/2000/svg">
<path d="M0 10.6667C0 6.93298 0 5.06614 0.726621 3.64006C1.36578 2.38565 2.38565 1.36578 3.64006 0.726621C5.06614 0 6.93298 0 10.6667 0H19.3333C23.067 0 24.9339 0 26.3599 0.726621C27.6144 1.36578 28.6342 2.38565 29.2734 3.64006C30 5.06614 30 6.93298 30 10.6667V19.3333C30 23.067 30 24.9339 29.2734 26.3599C28.6342 27.6144 27.6144 28.6342 26.3599 29.2734C24.9339 30 23.067 30 19.3333 30H10.6667C6.93298 30 5.06614 30 3.64006 29.2734C2.38565 28.6342 1.36578 27.6144 0.726621 26.3599C0 24.9339 0 23.067 0 19.3333V10.6667Z" fill="white"/>
<path d="M21.484 6.99219L15.0692 11.9984L8.50781 6.99219V6.99354L8.51574 7.00031V14.0103L14.9953 19.1247L21.484 14.2078V6.99219Z" fill="#6D625A"/>
<path d="M23.167 5.77336L21.4824 6.99107V14.2067L26.7833 10.1369V7.68516C26.7833 7.68516 26.1399 4.18356 23.167 5.77336Z" fill="#453E38"/>
<path d="M21.4824 14.2026V23.5615H25.5453C25.5453 23.5615 26.7015 23.4424 26.7846 22.1246V10.1328L21.4824 14.2026Z" fill="#6D625A"/>
<path d="M8.51604 23.5713V14.0067L8.50781 14L8.51604 23.5713Z" fill="#49413A"/>
<path d="M8.50785 6.99224L6.83248 5.78129C3.85962 4.1915 3.21484 7.69176 3.21484 7.69176V10.1434L8.50785 14.0022V6.99224Z" fill="#49413A"/>
<path d="M8.50781 6.99219V14.0022L8.51604 14.009V6.99896L8.50781 6.99219Z" fill="#49413A"/>
<path d="M3.21484 10.1406V22.1324C3.29677 23.4516 4.4542 23.5694 4.4542 23.5694H8.5171L8.50785 13.9981L3.21484 10.1406Z" fill="#6D625A"/>
</svg>
