<svg width="36" height="35" viewBox="0 0 36 35" fill="none" xmlns="http://www.w3.org/2000/svg">
<path d="M11.501 33.5C12.3829 33.5 13.0978 32.7819 13.0978 31.896C13.0978 31.0101 12.3829 30.292 11.501 30.292C10.6191 30.292 9.90421 31.0101 9.90421 31.896C9.90421 32.7819 10.6191 33.5 11.501 33.5Z" stroke="#6D625A" stroke-width="2.94881" stroke-linecap="round" stroke-linejoin="round"/>
<path d="M29.0657 33.5C29.9476 33.5 30.6625 32.7819 30.6625 31.896C30.6625 31.0101 29.9476 30.292 29.0657 30.292C28.1838 30.292 27.4689 31.0101 27.4689 31.896C27.4689 32.7819 28.1838 33.5 29.0657 33.5Z" stroke="#6D625A" stroke-width="2.94881" stroke-linecap="round" stroke-linejoin="round"/>
<path d="M2 1.5H5.19361L9.44112 21.4218C9.59693 22.1514 10.0011 22.8036 10.584 23.2662C11.1669 23.7287 11.8921 23.9727 12.6347 23.9561H28.2515C28.9783 23.9549 29.683 23.7048 30.2491 23.2469C30.8153 22.789 31.209 22.1509 31.3653 21.4378L34 9.52004H6.9022" stroke="#6D625A" stroke-width="2.94881" stroke-linecap="round" stroke-linejoin="round"/>
</svg>
