<svg width="18" height="10" viewBox="0 0 18 10" fill="none" xmlns="http://www.w3.org/2000/svg">
<path d="M17.7499 8.49975C17.7505 8.79182 17.6488 9.07486 17.4624 9.29975C17.3575 9.42633 17.2286 9.53095 17.0832 9.60764C16.9377 9.68433 16.7786 9.73158 16.6149 9.74667C16.4512 9.76177 16.2861 9.74442 16.1291 9.69561C15.9721 9.6468 15.8262 9.56751 15.6999 9.46225L8.99993 3.86225L2.28743 9.26225C2.15957 9.36609 2.01245 9.44362 1.85452 9.49041C1.6966 9.5372 1.53098 9.55232 1.3672 9.5349C1.20341 9.51747 1.04469 9.46785 0.900139 9.38889C0.755593 9.30992 0.628079 9.20316 0.524926 9.07475C0.41113 8.94542 0.325296 8.79396 0.272809 8.62989C0.220323 8.46581 0.202318 8.29265 0.219924 8.12129C0.237531 7.94992 0.290368 7.78404 0.37512 7.63406C0.459872 7.48409 0.57471 7.35325 0.712426 7.24975L8.21243 1.21225C8.43609 1.0284 8.71665 0.927895 9.00618 0.927895C9.29571 0.927895 9.57626 1.0284 9.79993 1.21225L17.2999 7.46225C17.4512 7.58765 17.5708 7.74694 17.649 7.9272C17.7271 8.10747 17.7617 8.30362 17.7499 8.49975Z" fill="#6D625A"/>
</svg>
