<svg width="30" height="32" viewBox="0 0 30 32" fill="none" xmlns="http://www.w3.org/2000/svg">
<path d="M15 24L17.3333 21.76L14.7083 19.2H21.6667V16H14.7083L17.3333 13.44L15 11.2L8.33333 17.6L15 24ZM3.33333 32C2.41667 32 1.63194 31.6867 0.979167 31.06C0.326389 30.4333 0 29.68 0 28.8V6.4C0 5.52 0.326389 4.76667 0.979167 4.14C1.63194 3.51333 2.41667 3.2 3.33333 3.2H10.3333C10.6944 2.24 11.2986 1.46667 12.1458 0.88C12.9931 0.293333 13.9444 0 15 0C16.0556 0 17.0069 0.293333 17.8542 0.88C18.7014 1.46667 19.3056 2.24 19.6667 3.2H26.6667C27.5833 3.2 28.3681 3.51333 29.0208 4.14C29.6736 4.76667 30 5.52 30 6.4V28.8C30 29.68 29.6736 30.4333 29.0208 31.06C28.3681 31.6867 27.5833 32 26.6667 32H3.33333ZM3.33333 28.8H26.6667V6.4H3.33333V28.8ZM15 5.2C15.3611 5.2 15.6597 5.08667 15.8958 4.86C16.1319 4.63333 16.25 4.34667 16.25 4C16.25 3.65333 16.1319 3.36667 15.8958 3.14C15.6597 2.91333 15.3611 2.8 15 2.8C14.6389 2.8 14.3403 2.91333 14.1042 3.14C13.8681 3.36667 13.75 3.65333 13.75 4C13.75 4.34667 13.8681 4.63333 14.1042 4.86C14.3403 5.08667 14.6389 5.2 15 5.2Z" fill="#EA661B"/>
</svg>
