<svg width="28" height="32" viewBox="0 0 28 32" fill="none" xmlns="http://www.w3.org/2000/svg">
<path d="M20.5269 32H6.63801C4.62602 32 2.98227 30.4234 2.87471 28.4383L2.87434 28.4288L1.58865 5.43289H25.5758L24.2958 28.433C24.1863 30.4257 22.5438 32 20.5337 32H20.5265H20.5269L20.5269 32ZM3.84427 7.56629L5.0048 28.3136C5.04992 29.1804 5.76355 29.8662 6.63745 29.8666H20.5254C21.3979 29.8663 22.1107 29.1828 22.1579 28.322L22.1581 28.3178L23.3201 7.56623L3.84427 7.56629ZM27.1644 7.56629H0V5.43292H27.1644V7.56629ZM10.8658 3.12923e-05H16.2986C18.387 0.00246879 20.0793 1.69471 20.0817 3.7829V7.56623H7.08264V3.78311C7.08507 1.69475 8.77732 0.00243749 10.8655 0H10.8657L10.8658 3.12923e-05ZM17.9484 5.43292V3.78315C17.9476 2.87234 17.2094 2.13418 16.2987 2.13337H10.8658C9.95494 2.13415 9.21679 2.8723 9.21597 3.78305V5.43289L17.9484 5.43292ZM14.6488 26.8658H12.5155V10.5671H14.6488V26.8658ZM20.0817 26.8658H17.9484V10.5671H20.0817V26.8658ZM9.21597 26.8658H7.08264V10.5671H9.21597V26.8658Z" fill="#6D625A"/>
</svg>
