<svg width="41" height="41" viewBox="0 0 41 41" fill="none" xmlns="http://www.w3.org/2000/svg">
<path d="M20.5 17.3111C18.7233 17.3111 17.3111 18.7233 17.3111 20.5C17.3111 22.2767 18.7233 23.6889 20.5 23.6889C22.2767 23.6889 23.6889 22.2767 23.6889 20.5C23.6889 18.7233 22.2767 17.3111 20.5 17.3111ZM20.5 21.8667C19.7256 21.8667 19.1333 21.2289 19.1333 20.5C19.1333 19.7256 19.7256 19.1333 20.5 19.1333C21.2744 19.1333 21.8667 19.7256 21.8667 20.5C21.8667 21.2289 21.2744 21.8667 20.5 21.8667ZM20.5 0C9.20222 0 0 9.20222 0 20.5C0 31.7978 9.20222 41 20.5 41C31.7978 41 41 31.7978 41 20.5C41 9.20222 31.7978 0 20.5 0ZM20.5 39.1778C10.2044 39.1778 1.82222 30.7956 1.82222 20.5C1.82222 10.2044 11.5312 2.5625 20.5 1.92188C27.88 3.20312 36.5156 10.8906 39.1778 20.5C39.1778 30.7956 30.7956 39.1778 20.5 39.1778ZM20.5 1.92188C11.7078 1.92188 -0.640625 10.1589 1.28125 20.9556C1.28125 29.7478 8.32812 39.7188 20.5 40.3594C37.7969 36.5156 39.1778 29.2922 39.1778 20.5C39.1778 11.7078 29.2922 1.92188 20.5 1.92188ZM34.2578 17.3567H26.3311L26.1489 17.0378L30.1122 10.1589C32.1622 12.0722 33.62 14.5322 34.2578 17.3567ZM20.5 6.37778C21.9578 6.37778 23.37 6.60556 24.6911 7.01556L20.7278 13.8944H20.3178L16.3544 7.01556C17.63 6.60556 19.0422 6.37778 20.5 6.37778ZM10.8878 10.1589L14.8511 17.0378L14.6689 17.3567H6.74222C7.38 14.5322 8.83778 12.0722 10.8878 10.1589ZM6.74222 23.6433H14.6689L14.8511 23.9622L10.8878 30.8411C8.83778 28.9278 7.38 26.4678 6.74222 23.6433ZM20.5 34.6222C19.0422 34.6222 17.63 34.3944 16.3089 33.9844L20.2722 27.1056H20.6822L24.6456 33.9844C23.37 34.3944 21.9578 34.6222 20.5 34.6222ZM30.1122 30.8411L26.1489 23.9622L26.3311 23.6433H34.2578C33.62 26.4678 32.1622 28.9278 30.1122 30.8411ZM34.5767 21.8211H25.7844C25.4656 21.8211 25.1467 22.0033 25.01 22.2767L24.2811 23.5067C24.0989 23.78 24.0989 24.1444 24.2811 24.4178L28.6544 31.98C28.4267 32.1622 28.1533 32.3444 27.88 32.4811L27.1056 32.9367C26.8778 33.0733 26.6044 33.21 26.3311 33.3011L21.9578 25.7389C21.8211 25.4656 21.5022 25.2833 21.1833 25.2833H19.7256C19.4067 25.2833 19.0878 25.4656 18.9511 25.7389L14.5778 33.3011C14.3044 33.1644 14.0767 33.0733 13.8033 32.9367L13.0289 32.4811C12.7556 32.2989 12.5278 32.1622 12.2544 31.98L16.6278 24.4178C16.81 24.1444 16.81 23.78 16.6278 23.5067L15.8989 22.2767C15.7167 22.0033 15.4433 21.8211 15.1244 21.8211H6.42333C6.42333 21.5478 6.37778 21.2289 6.37778 20.9556V20.0444C6.37778 19.7711 6.42333 19.4522 6.42333 19.1789H15.17C15.4889 19.1789 15.8078 18.9967 15.9444 18.7233L16.6733 17.4933C16.8556 17.22 16.8556 16.8556 16.6733 16.5822L12.3 8.97445C12.5278 8.79222 12.8011 8.61 13.0744 8.47333L13.8033 8.06333C14.0311 7.92667 14.3044 7.79 14.5778 7.69889L18.9511 15.3067C19.0878 15.58 19.4067 15.7622 19.7256 15.7622H21.1833C21.5022 15.7622 21.8211 15.58 21.9578 15.3067L26.3311 7.69889C26.6044 7.83556 26.8322 7.92667 27.1056 8.06333L27.8344 8.47333C28.1078 8.65556 28.3356 8.79222 28.6089 8.97445L24.2356 16.5822C24.0533 16.8556 24.0533 17.22 24.2356 17.4933L24.9644 18.7233C25.1467 18.9967 25.42 19.1789 25.7389 19.1789H34.4856C34.5311 19.4522 34.5311 19.7711 34.5311 20.0444V20.9556C34.6222 21.2289 34.5767 21.5022 34.5767 21.8211Z" fill="#FF6F1E"/>
</svg>
