<svg width="74" height="30" viewBox="0 0 74 30" fill="none" xmlns="http://www.w3.org/2000/svg">
<path d="M35.3851 14.4578V23.3712H32.6543V1.36847H39.897C41.6441 1.33338 43.3233 2.01768 44.5954 3.28099C45.8675 4.45657 46.5799 6.15853 46.546 7.91313C46.5799 9.68528 45.8675 11.3872 44.5954 12.5804C43.3233 13.8261 41.7628 14.4578 39.9139 14.4578H35.3851ZM35.3851 4.07056V11.7557H39.9648C40.9825 11.7908 41.9663 11.3697 42.6618 10.6152C44.1035 9.17645 44.1205 6.80773 42.7296 5.31632L42.6618 5.24614C41.9663 4.47412 40.9825 4.05301 39.9648 4.0881L35.3851 4.07056ZM52.8389 7.8254C54.8573 7.8254 56.4517 8.38687 57.6221 9.49227C58.7924 10.6152 59.3691 12.1417 59.3691 14.0893V23.3536H56.757V21.2656H56.6383C55.5019 22.9852 54.0092 23.8449 52.1265 23.8449C50.532 23.8449 49.1751 23.3536 48.1065 22.371C47.0549 21.4586 46.4612 20.1076 46.4951 18.6864C46.4951 17.1248 47.0718 15.8966 48.2083 14.9666C49.3447 14.0367 50.8713 13.5805 52.771 13.5805C54.3993 13.5805 55.7224 13.8963 56.774 14.4929V13.8437C56.774 12.8787 56.3669 11.9663 55.6545 11.3521C54.9252 10.6854 53.9923 10.3169 53.0254 10.3169C51.4989 10.3169 50.2946 10.9837 49.3956 12.3172L46.987 10.7556C48.2931 8.80798 50.2437 7.8254 52.8389 7.8254ZM49.3108 18.7566C49.3108 19.4935 49.65 20.1778 50.2098 20.5989C50.8204 21.0902 51.5667 21.3534 52.33 21.3358C53.4834 21.3358 54.5859 20.8621 55.4001 20.0199C56.2991 19.1426 56.757 18.1074 56.757 16.9142C55.9089 16.2124 54.7216 15.8615 53.195 15.8615C52.0925 15.8615 51.1596 16.1422 50.4133 16.6861C49.684 17.2476 49.3108 17.9319 49.3108 18.7566ZM74.3634 8.31669L65.2379 30.0036H62.4223L65.8146 22.4237L59.8102 8.33424H62.7785L67.1037 19.1426H67.1716L71.3951 8.33424L74.3634 8.31669Z" fill="white"/>
<path d="M24.3142 12.689C24.3142 11.8442 24.2463 10.9994 24.1106 10.1719H12.5869V14.9476H19.1888C18.9173 16.482 18.0348 17.8613 16.7449 18.7234V21.8267H20.6823C22.9904 19.6716 24.3142 16.482 24.3142 12.689Z" fill="white"/>
<path d="M12.5865 24.8311C15.879 24.8311 18.6623 23.7277 20.6819 21.8312L16.7445 18.7278C15.6414 19.4864 14.2327 19.9174 12.5865 19.9174C9.39586 19.9174 6.69739 17.7278 5.73001 14.7969H1.67383V18.0037C3.74435 22.176 7.97025 24.8311 12.5865 24.8311Z" fill="white"/>
<path d="M5.7305 14.7918C5.22136 13.2574 5.22136 11.585 5.7305 10.0333V6.84375H1.67432C0.812446 8.56951 0.363281 10.4774 0.363281 12.4126C0.363281 14.3477 0.812446 16.2556 1.67432 17.9814L5.7305 14.7918Z" fill="white"/>
<path d="M12.5875 4.91441C14.3355 4.87993 16.0157 5.55232 17.2716 6.77643L20.7508 3.24204C18.5445 1.12141 15.6254 -0.0337315 12.5875 0.000750288C7.97123 0.000750288 3.74533 2.65585 1.6748 6.84539L5.73099 10.0522C6.69837 7.104 9.39684 4.91441 12.5875 4.91441Z" fill="white"/>
</svg>
