<svg width="51" height="30" viewBox="0 0 51 30" fill="none" xmlns="http://www.w3.org/2000/svg">
<path d="M10.9167 30C8.03472 30 5.57812 28.9554 3.54688 26.8661C1.51562 24.7768 0.5 22.25 0.5 19.2857C0.5 16.3214 0.96875 14.0893 3 12C5.03125 9.91071 8.03472 8.57143 10.9167 8.57143H15.7725L13.9615 6.09891H10.9167V4.28571H16.75L20 13.5L35.6562 6.75825L31.2692 2.8022H28.3846V0H30.8646C31.4201 0 31.9497 0.107143 32.4531 0.321429C32.9566 0.535714 33.3993 0.839286 33.7813 1.23214L41.0208 8.67857C43.7292 8.89286 45.9861 10.0179 47.7917 12.0536C49.5972 14.0893 50.5 16.5 50.5 19.2857C50.5 22.25 49.4844 24.7768 47.4531 26.8661C45.4219 28.9554 42.9653 30 40.0833 30C37.2014 30 34.7448 28.9554 32.7135 26.8661C30.6823 24.7768 29.6667 22.25 29.6667 19.2857C29.6667 18.6429 29.7101 18.0089 29.7969 17.3839C29.8837 16.7589 30.0486 16.1429 30.2917 15.5357L24.5625 21.4286H21.125C20.6389 23.9286 19.441 25.9821 17.5313 27.5893C15.6215 29.1964 13.4167 30 10.9167 30ZM40.0833 26.5C41.8194 26.5 44.0572 25.75 45.2725 24.5C46.4877 23.25 47.2203 21.0714 47.2203 19.2857C47.2203 17.5 46.4877 15.25 45.2725 14C44.0572 12.75 41.8194 12.0536 40.0833 12.0536C38.3472 12.0536 36.2153 12.75 35 14C33.7847 15.25 33 17.5 33 19.2857C33 21.0714 33.7847 22.75 35 24C36.2153 25.25 38.3472 26.5 40.0833 26.5ZM10.5 26.5C11.8194 26.5 13.441 26.2857 14.5 25.5C15.5 25 17.5 23 17.5313 21.4286H10.9167L11 18.5H17.8476C17.8476 17 17.5 15 15.7725 13.5C13.5 12 12.3194 12 11 12C9.26389 12 7.5 12 5.5 14C4.27246 14.9643 3.71665 17.8687 3.71665 19.2857C3.71665 21.0714 4.78472 23.2857 6 24.5357C7.21528 25.7857 8.76389 26.5 10.5 26.5ZM21.5 18.5H23.5L29.7969 11.3736L21 15C20.6528 14.2857 21.5 14.5 21 15C21.2292 15.7114 21.5 17.6655 21.5 18.5Z" fill="#FF6F1E"/>
</svg>
