<svg width="30" height="30" viewBox="0 0 30 30" fill="none" xmlns="http://www.w3.org/2000/svg">
<path d="M0 10.6667C0 6.93298 0 5.06614 0.726621 3.64006C1.36578 2.38565 2.38565 1.36578 3.64006 0.726621C5.06614 0 6.93298 0 10.6667 0H19.3333C23.067 0 24.9339 0 26.3599 0.726621C27.6144 1.36578 28.6342 2.38565 29.2734 3.64006C30 5.06614 30 6.93298 30 10.6667V19.3333C30 23.067 30 24.9339 29.2734 26.3599C28.6342 27.6144 27.6144 28.6342 26.3599 29.2734C24.9339 30 23.067 30 19.3333 30H10.6667C6.93298 30 5.06614 30 3.64006 29.2734C2.38565 28.6342 1.36578 27.6144 0.726621 26.3599C0 24.9339 0 23.067 0 19.3333V10.6667Z" fill="white"/>
<path d="M21.4837 6.98901L15.0689 11.9952L8.50751 6.98901V6.99036L8.51544 6.99713V14.0071L14.995 19.1215L21.4837 14.2046V6.98901Z" fill="#EA4335"/>
<path d="M23.1674 5.77116L21.4828 6.98887V14.2045L26.7837 10.1347V7.68297C26.7837 7.68297 26.1403 4.18137 23.1674 5.77116Z" fill="#FBBC05"/>
<path d="M21.4828 14.2046V23.5634H25.5456C25.5456 23.5634 26.7018 23.4444 26.785 22.1265V10.1348L21.4828 14.2046Z" fill="#34A853"/>
<path d="M8.51586 23.5715V14.007L8.50763 14.0002L8.51586 23.5715Z" fill="#C5221F"/>
<path d="M8.50748 6.99005L6.83211 5.7791C3.85925 4.1893 3.21448 7.68956 3.21448 7.68956V10.1412L8.50748 14V6.99005Z" fill="#C5221F"/>
<path d="M8.50763 6.99048V14.0005L8.51586 14.0073V6.99725L8.50763 6.99048Z" fill="#C5221F"/>
<path d="M3.21448 10.1431V22.1348C3.2964 23.4541 4.45383 23.5718 4.45383 23.5718H8.51673L8.50748 14.0005L3.21448 10.1431Z" fill="#4285F4"/>
</svg>
