<svg width="38" height="30" viewBox="0 0 38 30" fill="none" xmlns="http://www.w3.org/2000/svg">
<rect width="38" height="30" fill="white"/>
<path d="M19.2192 12.836C19.198 14.5077 20.709 15.4406 21.8472 15.9952C23.0167 16.5643 23.4095 16.9292 23.405 17.438C23.3961 18.2169 22.4721 18.5606 21.6073 18.574C20.0986 18.5975 19.2215 18.1667 18.524 17.8409L17.9806 20.384C18.6802 20.7065 19.9758 20.9877 21.3194 21C24.4729 21 26.5362 19.4433 26.5474 17.0296C26.5597 13.9665 22.3103 13.7968 22.3393 12.4276C22.3493 12.0125 22.7455 11.5695 23.6137 11.4568C24.0433 11.3999 25.2295 11.3564 26.5742 11.9757L27.102 9.51511C26.3789 9.25176 25.4493 8.99956 24.2921 8.99956C21.3238 8.99956 19.236 10.5775 19.2192 12.836ZM32.1738 9.21158C31.598 9.21158 31.1125 9.54747 30.8961 10.063L26.3912 20.8192H29.5425L30.1696 19.0862H34.0206L34.3844 20.8192H37.1619L34.7381 9.21158H32.1738ZM32.6146 12.3473L33.524 16.706H31.0333L32.6146 12.3473ZM15.3984 9.21158L12.9144 20.8192H15.9173L18.4002 9.21158H15.3984ZM10.956 9.21158L7.8303 17.1122L6.56598 10.3944C6.41757 9.64455 5.83172 9.21158 5.18115 9.21158H0.0714179L0 9.54859C1.04895 9.77623 2.24074 10.1434 2.96273 10.5362C3.40463 10.7761 3.53072 10.9859 3.67579 11.5561L6.07052 20.8192H9.24416L14.1095 9.21158H10.956Z" fill="#453E38"/>
<path d="M0 0H38V4H0V0Z" fill="#352F2B"/>
<path d="M0 26H38V30H0V26Z" fill="#6D625A"/>
</svg>
