<svg width="30" height="30" viewBox="0 0 30 30" fill="none" xmlns="http://www.w3.org/2000/svg">
<path d="M25.5 0H4.5C2.01472 0 0 2.01472 0 4.5V25.5C0 27.9853 2.01472 30 4.5 30H25.5C27.9853 30 30 27.9853 30 25.5V4.5C30 2.01472 27.9853 0 25.5 0Z" fill="#F8F8F8"/>
<path d="M11.6602 23.6758C11.0156 23.6758 11.0742 23.4414 10.8984 22.8555L9.02344 16.7031L23.3789 8.26562" fill="#918881"/>
<path d="M11.6602 23.668C12.0703 23.668 12.3047 23.4336 12.5977 23.1992L15.2344 20.6797L11.9531 18.6875" fill="#49413A"/>
<path d="M11.9535 18.6918L19.8636 24.4926C20.684 25.02 21.3871 24.727 21.6215 23.6723L24.8441 8.55513C25.1371 7.26607 24.3168 6.68013 23.4379 7.09028L4.62927 14.3559C3.3988 14.8247 3.3988 15.5864 4.3949 15.8793L9.25818 17.4028L20.391 10.3129C20.9183 10.02 21.3871 10.1372 21.0355 10.5473" fill="#6D625A"/>
</svg>
