<svg width="75" height="30" viewBox="0 0 75 30" fill="none" xmlns="http://www.w3.org/2000/svg">
<path d="M36.2133 14.1915V22.9428H33.4958V1.34013H40.703C42.4414 1.30568 44.1124 1.97753 45.3783 3.21787C46.6442 4.37208 47.3531 6.0431 47.3193 7.76579C47.3531 9.50572 46.6442 11.1767 45.3783 12.3482C44.1124 13.5713 42.5596 14.1915 40.7198 14.1915H36.2133ZM36.2133 3.99309V11.5385H40.7705C41.7832 11.573 42.7621 11.1595 43.4541 10.4188C44.8888 9.00614 44.9057 6.68049 43.5217 5.2162L43.4541 5.14729C42.7621 4.38931 41.7832 3.97586 40.7705 4.01031L36.2133 3.99309ZM53.5812 7.67966C55.5898 7.67966 57.1763 8.23092 58.3409 9.31622C59.5056 10.4188 60.0794 11.9175 60.0794 13.8297V22.9255H57.4801V20.8755H57.362C56.2311 22.5638 54.7458 23.4079 52.8723 23.4079C51.2857 23.4079 49.9355 22.9255 48.8721 21.9608C47.8257 21.065 47.2349 19.7386 47.2687 18.3432C47.2687 16.81 47.8425 15.6041 48.9734 14.691C50.1043 13.778 51.6233 13.3301 53.5137 13.3301C55.134 13.3301 56.4506 13.6402 57.497 14.2259V13.5885C57.497 12.641 57.0919 11.7452 56.383 11.1423C55.6573 10.4877 54.729 10.1259 53.7669 10.1259C52.2478 10.1259 51.0494 10.7805 50.1549 12.0898L47.7581 10.5566C49.0578 8.64437 50.9988 7.67966 53.5812 7.67966ZM50.0705 18.4121C50.0705 19.1356 50.4081 19.8075 50.9651 20.2209C51.5727 20.7033 52.3153 20.9617 53.0749 20.9444C54.2226 20.9444 55.3197 20.4793 56.1299 19.6524C57.0244 18.7911 57.4801 17.7747 57.4801 16.6032C56.6362 15.9142 55.4547 15.5696 53.9357 15.5696C52.8386 15.5696 51.9102 15.8453 51.1676 16.3793C50.4418 16.9306 50.0705 17.6024 50.0705 18.4121ZM75 8.16202L65.9194 29.4546H63.1175L66.4932 22.0125L60.5183 8.17924H63.472L67.776 18.7911H67.8435L72.0463 8.17924L75 8.16202Z" fill="black"/>
<path d="M25.197 12.4594C25.197 11.63 25.1294 10.8006 24.9943 9.98804H13.5273V14.6769H20.0968C19.8265 16.1835 18.9484 17.5377 17.6649 18.384V21.431H21.5829C23.8797 19.3151 25.197 16.1835 25.197 12.4594Z" fill="#4285F4"/>
<path d="M13.5274 24.3764C16.8037 24.3764 19.5733 23.2931 21.583 21.4311L17.665 18.3841C16.5672 19.1289 15.1655 19.5521 13.5274 19.5521C10.3524 19.5521 7.66721 17.4023 6.70459 14.5247H2.66833V17.6732C4.72868 21.7696 8.93382 24.3764 13.5274 24.3764Z" fill="#34A853"/>
<path d="M6.70449 14.5245C6.19785 13.018 6.19785 11.376 6.70449 9.85252V6.72095H2.66824C1.8106 8.41533 1.36365 10.2885 1.36365 12.1885C1.36365 14.0885 1.8106 15.9617 2.66824 17.6561L6.70449 14.5245Z" fill="#FBBC04"/>
<path d="M13.5274 4.82506C15.2669 4.7912 16.9388 5.45137 18.1885 6.65322L21.6506 3.18309C19.4551 1.10102 16.5504 -0.0331182 13.5274 0.000736647C8.93382 0.000736647 4.72868 2.60756 2.66833 6.72093L6.70459 9.86943C7.66721 6.97484 10.3524 4.82506 13.5274 4.82506Z" fill="#EA4335"/>
</svg>
