<svg width="32" height="33" viewBox="0 0 32 33" fill="none" xmlns="http://www.w3.org/2000/svg">
<path d="M31.4743 29.4507L25.4318 23.4259C27.3814 20.9422 28.4392 17.8751 28.4353 14.7176C28.4353 11.9057 27.6014 9.15683 26.0392 6.81875C24.4769 4.48067 22.2564 2.65836 19.6585 1.58226C17.0606 0.50616 14.2019 0.224604 11.4439 0.773194C8.68597 1.32179 6.15263 2.67588 4.16426 4.66426C2.17588 6.65263 0.821785 9.18597 0.273194 11.9439C-0.275396 14.7019 0.00616023 17.5606 1.08226 20.1585C2.15836 22.7564 3.98067 24.9769 6.31875 26.5392C8.65683 28.1014 11.4057 28.9353 14.2176 28.9353C17.3751 28.9392 20.4422 27.8814 22.9259 25.9318L28.9507 31.9743C29.1159 32.1409 29.3124 32.2731 29.529 32.3633C29.7456 32.4535 29.9779 32.5 30.2125 32.5C30.4471 32.5 30.6794 32.4535 30.896 32.3633C31.1125 32.2731 31.3091 32.1409 31.4743 31.9743C31.6409 31.8091 31.7731 31.6125 31.8633 31.396C31.9535 31.1794 32 30.9471 32 30.7125C32 30.4779 31.9535 30.2456 31.8633 30.029C31.7731 29.8124 31.6409 29.6159 31.4743 29.4507ZM3.55442 14.7176C3.55442 12.6087 4.1798 10.547 5.35149 8.79347C6.52318 7.03991 8.18855 5.67318 10.137 4.86611C12.0855 4.05903 14.2295 3.84786 16.2979 4.25931C18.3664 4.67075 20.2664 5.68632 21.7577 7.1776C23.249 8.66888 24.2645 10.5689 24.676 12.6374C25.0874 14.7058 24.8763 16.8498 24.0692 18.7983C23.2621 20.7467 21.8954 22.4121 20.1418 23.5838C18.3883 24.7555 16.3266 25.3809 14.2176 25.3809C11.3896 25.3809 8.67735 24.2574 6.6776 22.2577C4.67786 20.2579 3.55442 17.5457 3.55442 14.7176Z" fill="#6D625A"/>
</svg>
