<svg width="30" height="30" viewBox="0 0 30 30" fill="none" xmlns="http://www.w3.org/2000/svg">
<path d="M23.5714 0H6.42857C2.87817 0 0 2.87817 0 6.42857V23.5714C0 27.1218 2.87817 30 6.42857 30H23.5714C27.1218 30 30 27.1218 30 23.5714V6.42857C30 2.87817 27.1218 0 23.5714 0Z" fill="url(#paint0_radial_456_2610)"/>
<path d="M23.5714 0H6.42857C2.87817 0 0 2.87817 0 6.42857V23.5714C0 27.1218 2.87817 30 6.42857 30H23.5714C27.1218 30 30 27.1218 30 23.5714V6.42857C30 2.87817 27.1218 0 23.5714 0Z" fill="url(#paint1_radial_456_2610)"/>
<path d="M23.5714 0H6.42857C2.87817 0 0 2.87817 0 6.42857V23.5714C0 27.1218 2.87817 30 6.42857 30H23.5714C27.1218 30 30 27.1218 30 23.5714V6.42857C30 2.87817 27.1218 0 23.5714 0Z" fill="white"/>
<path d="M22.5004 9.10714C22.5004 9.99471 21.7808 10.7143 20.8933 10.7143C20.0057 10.7143 19.2861 9.99471 19.2861 9.10714C19.2861 8.21954 20.0057 7.5 20.8933 7.5C21.7808 7.5 22.5004 8.21954 22.5004 9.10714Z" fill="#453E38"/>
<path fill-rule="evenodd" clip-rule="evenodd" d="M15.0007 20.3627C17.9593 20.3627 20.3578 17.9642 20.3578 15.0056C20.3578 12.0469 17.9593 9.64844 15.0007 9.64844C12.0421 9.64844 9.64355 12.0469 9.64355 15.0056C9.64355 17.9642 12.0421 20.3627 15.0007 20.3627ZM15.0007 18.2199C16.7759 18.2199 18.215 16.7808 18.215 15.0056C18.215 13.2303 16.7759 11.7913 15.0007 11.7913C13.2254 11.7913 11.7864 13.2303 11.7864 15.0056C11.7864 16.7808 13.2254 18.2199 15.0007 18.2199Z" fill="#453E38"/>
<path fill-rule="evenodd" clip-rule="evenodd" d="M4.28613 14.5748C4.28613 10.9745 4.28613 9.17424 4.9868 7.79913C5.60313 6.58951 6.58658 5.60606 7.7962 4.98973C9.17131 4.28906 10.9715 4.28906 14.5718 4.28906H15.429C19.0293 4.28906 20.8295 4.28906 22.2046 4.98973C23.4142 5.60606 24.3977 6.58951 25.014 7.79913C25.7147 9.17424 25.7147 10.9745 25.7147 14.5748V15.4319C25.7147 19.0322 25.7147 20.8325 25.014 22.2075C24.3977 23.4172 23.4142 24.4006 22.2046 25.0169C20.8295 25.7176 19.0293 25.7176 15.429 25.7176H14.5718C10.9715 25.7176 9.17131 25.7176 7.7962 25.0169C6.58658 24.4006 5.60313 23.4172 4.9868 22.2075C4.28613 20.8325 4.28613 19.0322 4.28613 15.4319V14.5748ZM14.5718 6.43192H15.429C17.2646 6.43192 18.5122 6.43359 19.4767 6.51238C20.4163 6.58914 20.8967 6.72827 21.2318 6.89903C22.0382 7.30992 22.6938 7.96555 23.1047 8.77192C23.2755 9.10706 23.4147 9.58749 23.4914 10.527C23.5701 11.4915 23.5718 12.7392 23.5718 14.5748V15.4319C23.5718 17.2675 23.5701 18.5152 23.4914 19.4797C23.4147 20.4192 23.2755 20.8996 23.1047 21.2348C22.6938 22.0411 22.0382 22.6967 21.2318 23.1076C20.8967 23.2784 20.4163 23.4176 19.4767 23.4943C18.5122 23.5731 17.2646 23.5748 15.429 23.5748H14.5718C12.7363 23.5748 11.4886 23.5731 10.5241 23.4943C9.58456 23.4176 9.10413 23.2784 8.76899 23.1076C7.96262 22.6967 7.30699 22.0411 6.8961 21.2348C6.72534 20.8996 6.58621 20.4192 6.50945 19.4797C6.43066 18.5152 6.42899 17.2675 6.42899 15.4319V14.5748C6.42899 12.7392 6.43066 11.4915 6.50945 10.527C6.58621 9.58749 6.72534 9.10706 6.8961 8.77192C7.30699 7.96555 7.96262 7.30992 8.76899 6.89903C9.10413 6.72827 9.58456 6.58914 10.5241 6.51238C11.4886 6.43359 12.7363 6.43192 14.5718 6.43192Z" fill="#453E38"/>
<defs>
<radialGradient id="paint0_radial_456_2610" cx="0" cy="0" r="1" gradientUnits="userSpaceOnUse" gradientTransform="translate(10.7143 22.5) rotate(-55.3758) scale(27.3424)">
<stop stop-color="#B13589"/>
<stop offset="0.79309" stop-color="#C62F94"/>
<stop offset="1" stop-color="#8A3AC8"/>
</radialGradient>
<radialGradient id="paint1_radial_456_2610" cx="0" cy="0" r="1" gradientUnits="userSpaceOnUse" gradientTransform="translate(9.64286 31.0714) rotate(-65.1363) scale(24.2081)">
<stop stop-color="#E0E8B7"/>
<stop offset="0.444662" stop-color="#FB8A2E"/>
<stop offset="0.71474" stop-color="#E2425C"/>
<stop offset="1" stop-color="#E2425C" stop-opacity="0"/>
</radialGradient>
</defs>
</svg>
