<svg width="32" height="34" viewBox="0 0 32 34" fill="none" xmlns="http://www.w3.org/2000/svg">
<path d="M14.2222 29.6225V17.9775L3.55556 12.07V23.715L14.2222 29.6225ZM17.7778 29.6225L28.4444 23.715V12.07L17.7778 17.9775V29.6225ZM14.2222 33.5325L1.77778 26.69C1.21481 26.3783 0.777778 25.9675 0.466667 25.4575C0.155556 24.9475 0 24.3808 0 23.7575V10.2425C0 9.61917 0.155556 9.0525 0.466667 8.5425C0.777778 8.0325 1.21481 7.62167 1.77778 7.31L14.2222 0.4675C14.7852 0.155833 15.3778 0 16 0C16.6222 0 17.2148 0.155833 17.7778 0.4675L30.2222 7.31C30.7852 7.62167 31.2222 8.0325 31.5333 8.5425C31.8444 9.0525 32 9.61917 32 10.2425V23.7575C32 24.3808 31.8444 24.9475 31.5333 25.4575C31.2222 25.9675 30.7852 26.3783 30.2222 26.69L17.7778 33.5325C17.2148 33.8442 16.6222 34 16 34C15.3778 34 14.7852 33.8442 14.2222 33.5325ZM23.1111 11.0925L26.5333 9.2225L16 3.4L12.5333 5.3125L23.1111 11.0925ZM16 15.045L19.4667 13.1325L8.93333 7.31L5.46667 9.2225L16 15.045Z" fill="#EA661B"/>
</svg>
