<svg xmlns="http://www.w3.org/2000/svg" width="50" height="36" fill="none">
  <mask id="a" fill="#fff">
    <path d="m40.556 11.18 1.234-1.147a1.65 1.65 0 0 0-1.234-.559v1.705Zm7.777 8.769H50c0-.424-.154-.832-.432-1.146l-1.235 1.146Zm0 9.42v1.705c.921 0 1.667-.764 1.667-1.706h-1.667Zm-15.555-18.19V9.474c-.92 0-1.667.764-1.667 1.705h1.667ZM1.667.38C.747.38 0 1.143 0 2.085 0 3.026.746 3.79 1.667 3.79V.38Zm31.11 1.706h1.667c0-.942-.746-1.706-1.666-1.706v1.706ZM8.335 27.663c-.92 0-1.667.763-1.667 1.705 0 .942.745 1.705 1.666 1.706v-3.41Zm1.11-10.231c.92 0 1.667-.764 1.667-1.705 0-.942-.746-1.706-1.667-1.706v3.41Zm-3.333-3.41c-.92 0-1.667.763-1.667 1.704 0 .942.747 1.706 1.667 1.706v-3.41Zm3.333 10.23c.92 0 1.667-.763 1.667-1.705 0-.941-.746-1.705-1.667-1.705v3.41Zm-1.11-3.41c-.921 0-1.667.764-1.667 1.705 0 .942.746 1.706 1.666 1.706v-3.41Zm1.11-10.231c.92 0 1.667-.764 1.667-1.705 0-.942-.746-1.706-1.667-1.706v3.41ZM3.89 7.2c-.92 0-1.667.763-1.667 1.705 0 .941.746 1.705 1.667 1.705V7.2Zm35.432 5.124 7.778 8.77 2.469-2.292-7.778-8.77-2.469 2.292Zm7.346 7.624v9.42H50v-9.42h-3.333Zm1.666 7.714H43.7v3.411h4.635v-3.41Zm-3.062 1.138c-.685-1.985-2.535-3.411-4.715-3.411v3.41a1.67 1.67 0 0 1 1.572 1.137l3.143-1.136Zm-4.715-3.411c-2.18 0-4.03 1.426-4.716 3.411l3.143 1.136c.23-.665.85-1.137 1.573-1.137v-3.41Zm-3.144 2.274h-4.634v3.41h4.633v-3.41Zm-2.968 1.704V11.18h-3.333v18.19h3.333Zm-1.666-16.484h7.778v-3.41h-7.778v3.41ZM1.667 3.79h31.11V.38H1.668v3.41ZM31.11 2.085v27.283h3.333V2.085h-3.333Zm1.667 25.578H17.033v3.411h15.745v-3.41Zm-14.174 1.138c-.685-1.985-2.535-3.411-4.715-3.411v3.41c.723 0 1.343.472 1.572 1.137l3.143-1.136ZM13.89 25.39c-2.18 0-4.03 1.426-4.716 3.411l3.143 1.136c.23-.665.85-1.137 1.573-1.137v-3.41Zm-3.144 2.274H8.334l-.001 3.41h2.412v-3.41Zm29.81 1.136c.921 0 1.667.763 1.667 1.705h3.334c0-2.825-2.24-5.115-5-5.115v3.41Zm1.667 1.705c0 .942-.746 1.705-1.666 1.705v3.41c2.76 0 5-2.29 5-5.115h-3.334Zm-1.666 1.705c-.92 0-1.667-.763-1.667-1.705h-3.333c0 2.825 2.238 5.116 5 5.116v-3.41Zm-1.667-1.705c0-.942.746-1.705 1.667-1.705v-3.41c-2.762 0-5 2.29-5 5.115h3.333Zm-25-1.705c.92 0 1.667.763 1.667 1.705h3.333c0-2.825-2.239-5.115-5-5.115v3.41Zm1.667 1.705c0 .942-.747 1.705-1.667 1.705v3.41c2.761 0 5-2.29 5-5.115h-3.333Zm-1.667 1.705c-.92 0-1.667-.763-1.667-1.705H8.89c0 2.825 2.239 5.116 5 5.116v-3.41Zm-1.667-1.705c0-.942.746-1.705 1.667-1.705v-3.41c-2.761 0-5 2.29-5 5.115h3.333ZM9.444 14.021H6.111v3.41h3.333v-3.41Zm0 6.821h-1.11v3.41h1.11v-3.41Zm0-13.642H3.89v3.41h5.555V7.2ZM35.84 28.801a5.218 5.218 0 0 0-.284 1.704h3.333c0-.202.033-.392.094-.568l-3.143-1.136Zm9.716 1.704c0-.594-.1-1.169-.285-1.704l-3.143 1.136c.06.175.094.366.094.568h3.334ZM9.173 28.801a5.216 5.216 0 0 0-.284 1.704h3.333c0-.202.034-.392.095-.568l-3.144-1.136Zm9.716 1.704c0-.594-.1-1.169-.285-1.704l-3.143 1.136c.06.175.095.366.095.568h3.333Z"/>
  </mask>
  <path fill="#C55C10" d="m40.556 11.18 1.234-1.147a1.65 1.65 0 0 0-1.234-.559v1.705Zm7.777 8.769H50c0-.424-.154-.832-.432-1.146l-1.235 1.146Zm0 9.42v1.705c.921 0 1.667-.764 1.667-1.706h-1.667Zm-15.555-18.19V9.474c-.92 0-1.667.764-1.667 1.705h1.667ZM1.667.38C.747.38 0 1.143 0 2.085 0 3.026.746 3.79 1.667 3.79V.38Zm31.11 1.706h1.667c0-.942-.746-1.706-1.666-1.706v1.706ZM8.335 27.663c-.92 0-1.667.763-1.667 1.705 0 .942.745 1.705 1.666 1.706v-3.41Zm1.11-10.231c.92 0 1.667-.764 1.667-1.705 0-.942-.746-1.706-1.667-1.706v3.41Zm-3.333-3.41c-.92 0-1.667.763-1.667 1.704 0 .942.747 1.706 1.667 1.706v-3.41Zm3.333 10.23c.92 0 1.667-.763 1.667-1.705 0-.941-.746-1.705-1.667-1.705v3.41Zm-1.11-3.41c-.921 0-1.667.764-1.667 1.705 0 .942.746 1.706 1.666 1.706v-3.41Zm1.11-10.231c.92 0 1.667-.764 1.667-1.705 0-.942-.746-1.706-1.667-1.706v3.41ZM3.89 7.2c-.92 0-1.667.763-1.667 1.705 0 .941.746 1.705 1.667 1.705V7.2Zm35.432 5.124 7.778 8.77 2.469-2.292-7.778-8.77-2.469 2.292Zm7.346 7.624v9.42H50v-9.42h-3.333Zm1.666 7.714H43.7v3.411h4.635v-3.41Zm-3.062 1.138c-.685-1.985-2.535-3.411-4.715-3.411v3.41a1.67 1.67 0 0 1 1.572 1.137l3.143-1.136Zm-4.715-3.411c-2.18 0-4.03 1.426-4.716 3.411l3.143 1.136c.23-.665.85-1.137 1.573-1.137v-3.41Zm-3.144 2.274h-4.634v3.41h4.633v-3.41Zm-2.968 1.704V11.18h-3.333v18.19h3.333Zm-1.666-16.484h7.778v-3.41h-7.778v3.41ZM1.667 3.79h31.11V.38H1.668v3.41ZM31.11 2.085v27.283h3.333V2.085h-3.333Zm1.667 25.578H17.033v3.411h15.745v-3.41Zm-14.174 1.138c-.685-1.985-2.535-3.411-4.715-3.411v3.41c.723 0 1.343.472 1.572 1.137l3.143-1.136ZM13.89 25.39c-2.18 0-4.03 1.426-4.716 3.411l3.143 1.136c.23-.665.85-1.137 1.573-1.137v-3.41Zm-3.144 2.274H8.334l-.001 3.41h2.412v-3.41Zm29.81 1.136c.921 0 1.667.763 1.667 1.705h3.334c0-2.825-2.24-5.115-5-5.115v3.41Zm1.667 1.705c0 .942-.746 1.705-1.666 1.705v3.41c2.76 0 5-2.29 5-5.115h-3.334Zm-1.666 1.705c-.92 0-1.667-.763-1.667-1.705h-3.333c0 2.825 2.238 5.116 5 5.116v-3.41Zm-1.667-1.705c0-.942.746-1.705 1.667-1.705v-3.41c-2.762 0-5 2.29-5 5.115h3.333Zm-25-1.705c.92 0 1.667.763 1.667 1.705h3.333c0-2.825-2.239-5.115-5-5.115v3.41Zm1.667 1.705c0 .942-.747 1.705-1.667 1.705v3.41c2.761 0 5-2.29 5-5.115h-3.333Zm-1.667 1.705c-.92 0-1.667-.763-1.667-1.705H8.89c0 2.825 2.239 5.116 5 5.116v-3.41Zm-1.667-1.705c0-.942.746-1.705 1.667-1.705v-3.41c-2.761 0-5 2.29-5 5.115h3.333ZM9.444 14.021H6.111v3.41h3.333v-3.41Zm0 6.821h-1.11v3.41h1.11v-3.41Zm0-13.642H3.89v3.41h5.555V7.2ZM35.84 28.801a5.218 5.218 0 0 0-.284 1.704h3.333c0-.202.033-.392.094-.568l-3.143-1.136Zm9.716 1.704c0-.594-.1-1.169-.285-1.704l-3.143 1.136c.06.175.094.366.094.568h3.334ZM9.173 28.801a5.216 5.216 0 0 0-.284 1.704h3.333c0-.202.034-.392.095-.568l-3.144-1.136Zm9.716 1.704c0-.594-.1-1.169-.285-1.704l-3.143 1.136c.06.175.095.366.095.568h3.333Z"/>
  <path fill="#C55C10" d="m43.53 28.899-1.572.568.34.94 1.571-.568-.34-.94Zm-6.288.94 1.571.568.34-.94-1.572-.568-.34.94ZM2.167 3.79V.38h-1v3.41h1Zm6.666 27.285v-3.41l-1-.001v3.41h1Zm.111-17.053v3.41h1v-3.41h-1Zm-2.333 3.41v-3.41h-1v3.41h1Zm2.333 3.411v3.41h1v-3.41h-1Zm-.11 3.41v-3.41h-1v3.41h1ZM8.943 7.2v3.41h1V7.2h-1ZM4.39 10.61V7.2h-1v3.41h1Zm35.667 14.78v3.41h1v-3.41h-1Zm2.242 5.017 3.143-1.136-.34-.94-3.143 1.136.34.94Zm-6.628-1.136 3.143 1.136.34-.94-3.143-1.136-.34.94Zm-3.392-1.608v3.41h1v-3.41h-1Zm-1.167 2.205h3.333v-1h-3.333v1ZM13.39 25.39v3.41h1v-3.41h-1Zm2.242 5.017 3.143-1.136-.34-.94-3.143 1.136.34.94Zm-6.627-1.136 3.143 1.136.34-.94-3.144-1.136-.34.94Zm33.218 1.734h3.334v-1h-3.334v1Zm-2.166 1.205v3.41h1v-3.41h-1Zm-1.167-2.205h-3.333v1h3.333v-1Zm-23.334 1h3.334v-1h-3.333v1ZM13.39 32.21v3.41h1v-3.41h-1Zm-1.167-2.205H8.89v1h3.333v-1ZM40.556 11.18h-1v2.293l1.68-1.56-.68-.733Zm1.234-1.146.748-.663-.748.663Zm6.543 9.916-.68-.733-1.866 1.733h2.546v-1Zm1.235-1.146.748-.663-.748.663Zm-1.235 10.565v-1h-1v1h1Zm0 1.706v1-1Zm-6.205-1.137-.946.326.946-.326Zm-3.145 0 .945.327-.945-.327Zm-6.205-18.758v1h1v-1h-1Zm0-9.094h-1v1h1v-1ZM8.334 27.663v-1 1Zm-1.667 1.705h1-1Zm1.666 1.706v-1 1ZM39.32 12.325l-.68-.733-.716.665.648.732.748-.664Zm7.778 8.77-.748.663.679.766.75-.696-.68-.733Zm-.432-1.146v-1h-1v1h1Zm0 9.42h-1v1h1v-1Zm1.666-1.706h1v-1h-1v1Zm-4.634 0v-1h-1v1h1Zm0 3.411h-1v1h1v-1Zm1.572-2.273-.945.326.945-.326Zm-9.431 0-.945-.326.945.326Zm1.572-1.137h1v-1h-1v1Zm-4.634 0v-1 1Zm0 3.41v-1 1Zm4.633 0v1h1v-1h-1ZM34.444 11.18h1v-1h-1v1Zm-1.666 1.705h-1v1h1v-1Zm7.778 0v1h1v-1h-1ZM32.778 3.79v1h1v-1h-1ZM31.11 2.085v-1h-1v1h1ZM17.033 27.664v-1h-1v1h1Zm0 3.41h-1v1h1v-1Zm1.571-2.273-.945.326.945-.326Zm-3.143 1.136-.945.326.945-.326Zm-6.288-1.136.946.326-.946-.326Zm3.143 1.136.946.326-.946-.326Zm-1.57-2.273h1v-1h-1v1Zm-.002 3.41v1h1v-1h-1Zm30.492-19.162 1.234-1.146L41.11 9.3l-1.235 1.146 1.361 1.466Zm1.302-2.542a2.65 2.65 0 0 0-1.982-.896v2a.65.65 0 0 1 .486.223l1.496-1.327Zm-2.982.104v1.705h2V9.474h-2Zm8.777 11.475H50v-2h-1.667v2Zm2.667-1c0-.666-.242-1.31-.684-1.81l-1.497 1.327c.115.13.181.301.181.483h2Zm-2.113-1.879-1.234 1.146 1.36 1.466 1.235-1.146-1.36-1.466ZM47.333 29.37v1.705h2v-1.706h-2Zm1 2.705c1.495 0 2.667-1.233 2.667-2.706h-2c0 .411-.32.706-.667.706v2ZM50 28.368h-1.667v2H50v-2ZM33.778 11.18V9.474h-2v1.705h2Zm-1-2.705c-1.494 0-2.667 1.233-2.667 2.705h2c0-.411.32-.705.667-.705v-2Zm-1.667 3.705h1.667v-2H31.11v2ZM1.667-.62C.172-.62-1 .612-1 2.085h2c0-.412.32-.706.667-.706v-2ZM-1 2.085C-1 3.557.172 4.79 1.667 4.79v-2C1.32 2.79 1 2.496 1 2.085h-2Zm33.778 1h1.666v-2h-1.666v2Zm2.666-1c0-1.473-1.172-2.706-2.666-2.706v2c.346 0 .666.294.666.706h2ZM31.778.379v1.706h2V.379h-2ZM8.334 26.663c-1.494 0-2.667 1.232-2.667 2.705h2c0-.411.32-.705.667-.705v-2Zm-2.667 2.705c0 1.472 1.171 2.705 2.666 2.706v-2c-.347 0-.666-.295-.666-.706h-2Zm3.777-10.936c1.495 0 2.667-1.233 2.667-2.705h-2c0 .41-.32.705-.667.705v2Zm2.667-2.705c0-1.473-1.172-2.706-2.667-2.706v2c.347 0 .667.294.667.705h2Zm-6-2.706c-1.494 0-2.667 1.233-2.667 2.705h2c0-.41.32-.705.667-.705v-2Zm-2.667 2.705c0 1.473 1.173 2.706 2.667 2.706v-2c-.347 0-.667-.294-.667-.705h-2Zm6 9.527c1.495 0 2.667-1.233 2.667-2.706h-2c0 .412-.32.706-.667.706v2Zm2.667-2.706c0-1.472-1.172-2.705-2.667-2.705v2c.347 0 .667.294.667.705h2Zm-3.778-2.705c-1.494 0-2.666 1.233-2.666 2.705h2c0-.41.32-.705.666-.705v-2Zm-2.666 2.705c0 1.473 1.172 2.706 2.666 2.706v-2c-.346 0-.666-.294-.666-.706h-2Zm3.777-10.936c1.495 0 2.667-1.233 2.667-2.705h-2c0 .41-.32.705-.667.705v2Zm2.667-2.705c0-1.473-1.172-2.706-2.667-2.706v2c.347 0 .667.294.667.706h2ZM3.89 6.2c-1.494 0-2.667 1.233-2.667 2.706h2c0-.412.32-.706.667-.706v-2ZM1.222 8.906c0 1.472 1.173 2.705 2.667 2.705v-2c-.347 0-.667-.294-.667-.705h-2Zm37.351 4.083 7.778 8.77 1.496-1.328-7.778-8.77-1.496 1.328Zm9.206 8.839 2.469-2.292-1.36-1.466-2.47 2.292 1.361 1.466Zm2.537-3.689-7.778-8.77-1.496 1.328 7.777 8.77 1.497-1.328ZM41.109 9.3l-2.468 2.292L40 13.058l2.47-2.292L41.108 9.3Zm4.558 10.649v9.42h2v-9.42h-2Zm1 10.42H50v-2h-3.333v2Zm4.333-1v-9.42h-2v9.42h2Zm-1-10.42h-3.333v2H50v-2Zm-1.667 7.714h-4.634v2h4.634v-2Zm-5.634 1v3.411h2v-3.41h-2Zm1 4.411h4.635v-2h-4.635v2Zm5.635-1v-3.411h-2v3.41h2Zm-3.118-2.6c-.816-2.363-3.028-4.084-5.66-4.084v2c1.727 0 3.215 1.13 3.77 2.737l1.89-.652Zm-5.66 1.326c.273 0 .529.18.627.463l1.89-.652a2.67 2.67 0 0 0-2.517-1.811v2Zm0-5.41c-2.633 0-4.845 1.721-5.661 4.085l1.89.652c.555-1.606 2.043-2.737 3.77-2.737v-2Zm-.628 5.873a.671.671 0 0 1 .628-.463v-2a2.67 2.67 0 0 0-2.518 1.81l1.89.653Zm-2.516-3.6h-4.634v2h4.634v-2Zm-4.635 5.41 4.634.001v-2h-4.633v2Zm5.634-.999v-3.41h-2v3.41h2Zm-2.967-1.706V11.18h-2v18.19h2Zm-1-19.189h-3.333v2h3.333v-2Zm-4.333 1v18.19h2v-18.19h-2Zm2.667 2.705h7.778v-2h-7.778v2Zm8.778-1v-3.41h-2v3.41h2Zm-1-4.41h-7.778v2h7.778v-2Zm-8.778 1v3.41h2v-3.41h-2ZM1.667 4.79h31.11v-2H1.668v2Zm32.11-1V.38h-2v3.41h2Zm-1-4.41H1.668v2h31.11v-2Zm-2.666 2.705v27.283h2V2.085h-2Zm5.333 27.283V2.085h-2v27.283h2Zm-1-28.283h-3.333v2h3.333v-2Zm-1.666 25.578H17.033v2h15.745v-2Zm-16.745 1v3.411h2v-3.41h-2Zm1 4.411h15.745v-2H17.033v2Zm2.516-3.6c-.815-2.363-3.028-4.084-5.66-4.084v2c1.728 0 3.215 1.13 3.77 2.737l1.89-.652ZM13.89 29.8c.274 0 .53.18.627.463l1.89-.652A2.671 2.671 0 0 0 13.89 27.8v2Zm0-5.41c-2.632 0-4.845 1.721-5.66 4.085l1.89.652c.554-1.606 2.042-2.737 3.77-2.737v-2Zm-.627 5.873a.671.671 0 0 1 .627-.463v-2a2.671 2.671 0 0 0-2.518 1.81l1.89.653Zm-2.516-3.6H8.334v2h2.411v-2Zm-2.413 5.41 2.411.001v-2h-2.41l-.001 2Zm3.412-.998v-3.411h-2v3.41h2Zm28.81-1.275c.347 0 .667.294.667.705h2c0-1.472-1.172-2.705-2.666-2.705v2Zm6 .705c0-3.356-2.664-6.115-6-6.115v2c2.188 0 4 1.82 4 4.115h2Zm-5.333 0c0 .411-.32.705-.666.705v2c1.494 0 2.666-1.233 2.666-2.705h-2Zm-.666 6.116c3.335 0 6-2.76 6-6.116h-2c0 2.295-1.813 4.116-4 4.116v2Zm0-5.41c-.347 0-.667-.295-.667-.706h-2c0 1.473 1.172 2.705 2.667 2.705v-2Zm-6-.706c0 3.356 2.664 6.116 6 6.116v-2c-2.188 0-4-1.821-4-4.116h-2Zm5.333 0c0-.411.32-.705.667-.705v-2c-1.495 0-2.667 1.233-2.667 2.705h2Zm.667-6.115c-3.336 0-6 2.76-6 6.115h2c0-2.294 1.812-4.115 4-4.115v-2ZM13.889 29.8c.347 0 .667.294.667.705h2c0-1.472-1.173-2.705-2.667-2.705v2Zm6 .705c0-3.356-2.665-6.115-6-6.115v2c2.188 0 4 1.82 4 4.115h2Zm-5.333 0c0 .411-.32.705-.667.705v2c1.494 0 2.666-1.233 2.666-2.705h-2Zm-.667 6.116c3.335 0 6-2.76 6-6.116h-2c0 2.295-1.812 4.116-4 4.116v2Zm0-5.41c-.347 0-.667-.295-.667-.706h-2c0 1.473 1.173 2.705 2.667 2.705v-2Zm-6-.706c0 3.356 2.665 6.116 6 6.116v-2c-2.188 0-4-1.821-4-4.116h-2Zm5.333 0c0-.411.32-.705.667-.705v-2c-1.494 0-2.667 1.233-2.667 2.705h2Zm.667-6.115c-3.335 0-6 2.76-6 6.115h2c0-2.294 1.812-4.115 4-4.115v-2ZM9.444 13.02H6.111v2h3.333v-2Zm-3.333 5.41h3.333v-2H6.111v2Zm3.333 1.411h-1.11v2h1.11v-2Zm-1.11 5.41h1.11v-2h-1.11v2ZM9.443 6.2H3.89v2h5.555v-2ZM3.89 11.61h5.555v-2H3.89v2Zm31.006 16.865a6.218 6.218 0 0 0-.34 2.03h2c0-.482.081-.946.23-1.378l-1.89-.652Zm4.994 2.03c0-.09.015-.17.04-.241l-1.891-.654c-.097.28-.15.58-.15.895h2Zm6.667 0c0-.707-.12-1.391-.34-2.03l-1.89.653c.149.43.23.895.23 1.377h2Zm-5.373-.241c.025.072.04.151.04.241h2c0-.315-.054-.615-.15-.895l-1.89.654Zm-32.955-1.79a6.217 6.217 0 0 0-.34 2.031h2c0-.482.082-.946.23-1.378l-1.89-.652Zm4.994 2.031c0-.09.015-.17.04-.242l-1.89-.652c-.097.279-.15.58-.15.894h2Zm6.667 0c0-.707-.119-1.391-.34-2.03l-1.89.652c.149.432.23.896.23 1.378h2Zm-5.373-.242c.025.072.04.152.04.242h2c0-.315-.053-.615-.15-.894l-1.89.652Z" mask="url(#a)"/>
</svg>
