<svg width="30" height="30" viewBox="0 0 30 30" fill="none" xmlns="http://www.w3.org/2000/svg">
<path d="M23.5714 0H6.42857C2.87817 0 0 2.87817 0 6.42857V23.5714C0 27.1218 2.87817 30 6.42857 30H23.5714C27.1218 30 30 27.1218 30 23.5714V6.42857C30 2.87817 27.1218 0 23.5714 0Z" fill="url(#paint0_radial_1001_672)"/>
<path d="M23.5714 0H6.42857C2.87817 0 0 2.87817 0 6.42857V23.5714C0 27.1218 2.87817 30 6.42857 30H23.5714C27.1218 30 30 27.1218 30 23.5714V6.42857C30 2.87817 27.1218 0 23.5714 0Z" fill="url(#paint1_radial_1001_672)"/>
<path d="M23.5714 0H6.42857C2.87817 0 0 2.87817 0 6.42857V23.5714C0 27.1218 2.87817 30 6.42857 30H23.5714C27.1218 30 30 27.1218 30 23.5714V6.42857C30 2.87817 27.1218 0 23.5714 0Z" fill="url(#paint2_radial_1001_672)"/>
<path d="M22.4999 9.10714C22.4999 9.99471 21.7803 10.7143 20.8928 10.7143C20.0052 10.7143 19.2856 9.99471 19.2856 9.10714C19.2856 8.21954 20.0052 7.5 20.8928 7.5C21.7803 7.5 22.4999 8.21954 22.4999 9.10714Z" fill="white"/>
<path fill-rule="evenodd" clip-rule="evenodd" d="M15 20.3571C17.9586 20.3571 20.3571 17.9586 20.3571 15C20.3571 12.0413 17.9586 9.64282 15 9.64282C12.0413 9.64282 9.64282 12.0413 9.64282 15C9.64282 17.9586 12.0413 20.3571 15 20.3571ZM15 18.2143C16.7752 18.2143 18.2143 16.7752 18.2143 15C18.2143 13.2247 16.7752 11.7857 15 11.7857C13.2247 11.7857 11.7857 13.2247 11.7857 15C11.7857 16.7752 13.2247 18.2143 15 18.2143Z" fill="white"/>
<path fill-rule="evenodd" clip-rule="evenodd" d="M4.28571 14.5714C4.28571 10.971 4.28571 9.17082 4.98638 7.79571C5.60271 6.58609 6.58615 5.60264 7.79577 4.98632C9.17088 4.28564 10.9711 4.28564 14.5714 4.28564H15.4286C19.0289 4.28564 20.8291 4.28564 22.2042 4.98632C23.4138 5.60264 24.3973 6.58609 25.0136 7.79571C25.7143 9.17082 25.7143 10.971 25.7143 14.5714V15.4285C25.7143 19.0288 25.7143 20.829 25.0136 22.2041C24.3973 23.4138 23.4138 24.3972 22.2042 25.0135C20.8291 25.7142 19.0289 25.7142 15.4286 25.7142H14.5714C10.9711 25.7142 9.17088 25.7142 7.79577 25.0135C6.58615 24.3972 5.60271 23.4138 4.98638 22.2041C4.28571 20.829 4.28571 19.0288 4.28571 15.4285V14.5714ZM14.5714 6.4285H15.4286C17.2641 6.4285 18.5118 6.43017 19.4763 6.50897C20.4158 6.58572 20.8963 6.72485 21.2314 6.89561C22.0378 7.30651 22.6934 7.96213 23.1043 8.7685C23.2751 9.10364 23.4142 9.58407 23.491 10.5236C23.5697 11.4881 23.5714 12.7358 23.5714 14.5714V15.4285C23.5714 17.2641 23.5697 18.5118 23.491 19.4763C23.4142 20.4158 23.2751 20.8962 23.1043 21.2314C22.6934 22.0377 22.0378 22.6933 21.2314 23.1042C20.8963 23.275 20.4158 23.4142 19.4763 23.4909C18.5118 23.5696 17.2641 23.5714 15.4286 23.5714H14.5714C12.7358 23.5714 11.4882 23.5696 10.5237 23.4909C9.58413 23.4142 9.10371 23.275 8.76856 23.1042C7.96219 22.6933 7.30657 22.0377 6.89567 21.2314C6.72491 20.8962 6.58578 20.4158 6.50903 19.4763C6.43023 18.5118 6.42856 17.2641 6.42856 15.4285V14.5714C6.42856 12.7358 6.43023 11.4881 6.50903 10.5236C6.58578 9.58407 6.72491 9.10364 6.89567 8.7685C7.30657 7.96213 7.96219 7.30651 8.76856 6.89561C9.10371 6.72485 9.58413 6.58572 10.5237 6.50897C11.4882 6.43017 12.7358 6.4285 14.5714 6.4285Z" fill="white"/>
<defs>
<radialGradient id="paint0_radial_1001_672" cx="0" cy="0" r="1" gradientUnits="userSpaceOnUse" gradientTransform="translate(10.7143 22.5) rotate(-55.3758) scale(27.3424)">
<stop stop-color="#B13589"/>
<stop offset="0.79309" stop-color="#C62F94"/>
<stop offset="1" stop-color="#8A3AC8"/>
</radialGradient>
<radialGradient id="paint1_radial_1001_672" cx="0" cy="0" r="1" gradientUnits="userSpaceOnUse" gradientTransform="translate(9.64286 31.0714) rotate(-65.1363) scale(24.2081)">
<stop stop-color="#E0E8B7"/>
<stop offset="0.444662" stop-color="#FB8A2E"/>
<stop offset="0.71474" stop-color="#E2425C"/>
<stop offset="1" stop-color="#E2425C" stop-opacity="0"/>
</radialGradient>
<radialGradient id="paint2_radial_1001_672" cx="0" cy="0" r="1" gradientUnits="userSpaceOnUse" gradientTransform="translate(-1.60714 1.07143) rotate(-8.1301) scale(41.6688 8.91253)">
<stop offset="0.156701" stop-color="#406ADC"/>
<stop offset="0.467799" stop-color="#6A45BE"/>
<stop offset="1" stop-color="#6A45BE" stop-opacity="0"/>
</radialGradient>
</defs>
</svg>
