<svg width="50" height="30" viewBox="0 0 50 30" fill="none" xmlns="http://www.w3.org/2000/svg">
<path d="M10.4167 30.0002C7.53472 30.0002 5.07812 28.9555 3.04688 26.8662C1.01562 24.7769 0 22.2502 0 19.2859C0 16.3216 1.01562 13.7948 3.04688 11.7055C5.07812 9.61623 7.53472 8.57159 10.4167 8.57159H14.1026L13.4615 6.09907H10.4167V4.28587H16.25L17.3077 8.57159L36.5385 8.67873L30.7692 2.80236H27.8846V0.000160343H30.3646C30.9201 0.000160343 31.4497 0.107303 31.9531 0.321589C32.4566 0.535875 32.8993 0.839446 33.2813 1.2323L40.5208 8.67873C43.2292 8.89302 45.4861 10.018 47.2917 12.0537C49.0972 14.0894 50 16.5002 50 19.2859C50 22.2502 48.9844 24.7769 46.9531 26.8662C44.9219 28.9555 42.4653 30.0002 39.5833 30.0002C36.7014 30.0002 34.2448 28.9555 32.2135 26.8662C30.1823 24.7769 29.1667 22.2502 29.1667 19.2859C29.1667 18.643 29.2101 18.0091 29.2969 17.3841C29.3837 16.7591 29.5486 16.143 29.7917 15.5359L24.0625 21.4287H20.625C20.1389 23.9287 18.941 25.9823 17.0313 27.5894C15.1215 29.1966 12.9167 30.0002 10.4167 30.0002ZM39.5833 25.7144C41.3194 25.7144 42.7951 25.0894 44.0104 23.8394C45.2257 22.5894 45.8333 21.0716 45.8333 19.2859C45.8333 17.5002 45.2257 15.9823 44.0104 14.7323C42.7951 13.4823 41.3194 12.8573 39.5833 12.8573C37.8472 12.8573 36.3715 13.4823 35.1562 14.7323C33.941 15.9823 33.3333 17.5002 33.3333 19.2859C33.3333 21.0716 33.941 22.5894 35.1562 23.8394C36.3715 25.0894 37.8472 25.7144 39.5833 25.7144ZM10.4167 25.7144C11.7361 25.7144 12.9253 25.3216 13.9844 24.5359C15.0434 23.7502 15.7986 22.7144 16.25 21.4287H10.4167V17.143H16.25C15.7986 15.8573 15.0434 14.8216 13.9844 14.0359C12.9253 13.2502 11.7361 12.8573 10.4167 12.8573C8.68056 12.8573 7.20486 13.4823 5.98958 14.7323C4.77431 15.9823 4.16667 17.5002 4.16667 19.2859C4.16667 21.0716 4.77431 22.5894 5.98958 23.8394C7.20486 25.0894 8.68056 25.7144 10.4167 25.7144ZM20.7292 17.143H22.2917L29.2969 11.3738H17.3077C17.8285 11.9809 19.6007 14.1252 19.9479 14.8394C20.2951 15.5537 20.5556 16.3216 20.7292 17.143Z" fill="#FF6F1E"/>
</svg>
