<svg width="32" height="32" viewBox="0 0 32 32" fill="none" xmlns="http://www.w3.org/2000/svg">
<path d="M19.6245 31.0788C19.0104 31.6929 18.2495 32 17.3417 32C16.4339 32 15.6729 31.6929 15.0588 31.0788L0.961202 16.9812C0.667501 16.6875 0.433876 16.3404 0.260325 15.9399C0.0867751 15.5394 0 15.1122 0 14.6583V3.20401C0 2.3229 0.313726 1.56863 0.941177 0.941177C1.56863 0.313726 2.3229 0 3.20401 0H14.6583C15.1122 0 15.5394 0.0867751 15.9399 0.260325C16.3404 0.433876 16.6875 0.667501 16.9812 0.961202L31.0788 15.0989C31.6929 15.713 32 16.4673 32 17.3617C32 18.2562 31.6929 19.0104 31.0788 19.6245L19.6245 31.0788ZM17.3417 28.836L28.796 17.3817L14.6583 3.20401H3.20401V14.6583L17.3417 28.836ZM7.20901 9.61201C7.87651 9.61201 8.44389 9.37839 8.91114 8.91114C9.37839 8.44389 9.61201 7.87651 9.61201 7.20901C9.61201 6.54151 9.37839 5.97413 8.91114 5.50688C8.44389 5.03963 7.87651 4.80601 7.20901 4.80601C6.54151 4.80601 5.97413 5.03963 5.50688 5.50688C5.03963 5.97413 4.80601 6.54151 4.80601 7.20901C4.80601 7.87651 5.03963 8.44389 5.50688 8.91114C5.97413 9.37839 6.54151 9.61201 7.20901 9.61201Z" fill="#EA661B"/>
</svg>
