<svg width="52" height="35" viewBox="0 0 52 35" fill="none" xmlns="http://www.w3.org/2000/svg">
<path d="M10.8333 34.4998C7.76389 34.4998 5.19097 33.4616 3.11458 31.3852C1.03819 29.3089 0 26.7358 0 23.6665C0 20.5971 1.05625 18.0241 3.16875 15.9477C5.28125 13.8714 7.83611 12.8331 10.8333 12.8331C13.6139 12.8331 15.9521 13.6637 17.8479 15.3248C19.7438 16.9859 20.9444 19.0443 21.45 21.4998H22.8583L18.9583 10.6665H15.1667V8.16663L26 9V10.6665H23.6167L24.375 12.8331H34.775L32.5 8.00012L30 2.9998L28.5 6.4998L27 2V1L29.5 0.00012207H32.5C32.5 0.00012207 32.5 0.000123024 33.5 1.49992C34.5 3.0001 35 4.00002 35.5 4.99992L39.4333 12.7248H41.1667C44.1639 12.7248 46.7188 13.7811 48.8313 15.8935C50.9438 18.006 52 20.561 52 23.5581C52 26.5914 50.9528 29.1735 48.8583 31.304C46.7639 33.4345 44.2 34.4998 41.1667 34.4998C38.5667 34.4998 36.2826 33.6873 34.3146 32.0623C32.3465 30.4373 31.0917 28.3609 30.55 25.8331H21.45C20.9444 28.3247 19.7167 30.3922 17.7667 32.0352C15.8167 33.6782 13.5056 34.4998 10.8333 34.4998ZM10.8333 30.1665C12.3139 30.1665 13.5868 29.7602 14.6521 28.9477C15.7174 28.1352 16.4667 27.097 16.9 25.8331H10.5V22.9081L16.9 21.4998C16.4667 20.1998 15.7174 19.1526 14.6521 18.3581C13.5868 17.5637 12.3139 17.1665 10.8333 17.1665C8.99167 17.1665 7.44792 17.7894 6.20208 19.0352C4.95625 20.281 4.33333 21.8248 4.33333 23.6665C4.33333 25.472 4.95625 27.0068 6.20208 28.2706C7.44792 29.5345 8.99167 30.1665 10.8333 30.1665ZM27.5167 21.4998H30.55C30.7306 20.6693 30.9743 19.8928 31.2813 19.1706C31.5882 18.4484 31.9944 17.7803 32.5 17.1665H25.8917L27.5167 21.4998ZM41.1667 30.1665C43.0083 30.1665 44.5521 29.5345 45.7979 28.2706C47.0438 27.0068 47.6667 25.472 47.6667 23.6665C47.6667 21.8248 47.0438 20.281 45.7979 19.0352C44.5521 17.7894 43.0083 17.1665 41.1667 17.1665H40.95L43.1167 22.9081L39 24.4248L36.9417 18.6831C36.2194 19.297 35.6597 20.0193 35.2625 20.8498C34.8653 21.6803 34.6667 22.6193 34.6667 23.6665C34.6667 25.472 35.2896 27.0068 36.5354 28.2706C37.7813 29.5345 39.325 30.1665 41.1667 30.1665Z" fill="#FF6F1E"/>
</svg>
