<svg width="52" height="52" viewBox="0 0 52 52" fill="none" xmlns="http://www.w3.org/2000/svg">
<mask id="mask0_73_341" style="mask-type:alpha" maskUnits="userSpaceOnUse" x="0" y="0" width="52" height="52">
<rect width="52" height="52" fill="#D9D9D9"/>
</mask>
<g mask="url(#mask0_73_341)">
<path d="M10.4167 43.0002C7.53472 43.0002 5.07812 41.9555 3.04688 39.8662C1.01562 37.7769 0 35.2502 0 32.2859C0 29.3216 1.01562 26.7948 3.04688 24.7055C5.07812 22.6162 7.53472 21.5716 10.4167 21.5716H14.1026L13.4615 19.0991H10.4167V17.2859H16.25L17.3077 21.5716L36.5385 21.6787L30.7692 15.8024H27.8846V13.0002H30.3646C30.9201 13.0002 31.4497 13.1073 31.9531 13.3216C32.4566 13.5359 32.8993 13.8394 33.2813 14.2323L40.5208 21.6787C43.2292 21.893 45.4861 23.018 47.2917 25.0537C49.0972 27.0894 50 29.5002 50 32.2859C50 35.2502 48.9844 37.7769 46.9531 39.8662C44.9219 41.9555 42.4653 43.0002 39.5833 43.0002C36.7014 43.0002 34.2448 41.9555 32.2135 39.8662C30.1823 37.7769 29.1667 35.2502 29.1667 32.2859C29.1667 31.643 29.2101 31.0091 29.2969 30.3841C29.3837 29.7591 29.5486 29.143 29.7917 28.5359L24.0625 34.4287H20.625C20.1389 36.9287 18.941 38.9823 17.0313 40.5894C15.1215 42.1966 12.9167 43.0002 10.4167 43.0002ZM39.5833 38.7144C41.3194 38.7144 42.7951 38.0894 44.0104 36.8394C45.2257 35.5894 45.8333 34.0716 45.8333 32.2859C45.8333 30.5002 45.2257 28.9823 44.0104 27.7323C42.7951 26.4823 41.3194 25.8573 39.5833 25.8573C37.8472 25.8573 36.3715 26.4823 35.1562 27.7323C33.941 28.9823 33.3333 30.5002 33.3333 32.2859C33.3333 34.0716 33.941 35.5894 35.1562 36.8394C36.3715 38.0894 37.8472 38.7144 39.5833 38.7144ZM10.4167 38.7144C11.7361 38.7144 12.9253 38.3216 13.9844 37.5359C15.0434 36.7502 15.7986 35.7144 16.25 34.4287H10.4167V30.143H16.25C15.7986 28.8573 15.0434 27.8216 13.9844 27.0359C12.9253 26.2502 11.7361 25.8573 10.4167 25.8573C8.68056 25.8573 7.20486 26.4823 5.98958 27.7323C4.77431 28.9823 4.16667 30.5002 4.16667 32.2859C4.16667 34.0716 4.77431 35.5894 5.98958 36.8394C7.20486 38.0894 8.68056 38.7144 10.4167 38.7144ZM20.7292 30.143H22.2917L29.2969 24.3738H17.3077C17.8285 24.9809 19.6007 27.1252 19.9479 27.8394C20.2951 28.5537 20.5556 29.3216 20.7292 30.143Z" fill="#FF6F1E"/>
</g>
</svg>
