<svg width="52" height="52" viewBox="0 0 52 52" fill="none" xmlns="http://www.w3.org/2000/svg">
<mask id="mask0_73_347" style="mask-type:alpha" maskUnits="userSpaceOnUse" x="0" y="0" width="52" height="52">
<rect width="52" height="52" fill="#D9D9D9"/>
</mask>
<g mask="url(#mask0_73_347)">
<path d="M10.8333 42.4998C7.76389 42.4998 5.19097 41.4616 3.11458 39.3852C1.03819 37.3089 0 34.7358 0 31.6665C0 28.5971 1.05625 26.0241 3.16875 23.9477C5.28125 21.8714 7.83611 20.8331 10.8333 20.8331C13.6139 20.8331 15.9521 21.6637 17.8479 23.3248C19.7438 24.9859 20.9444 27.0443 21.45 29.4998H22.8583L18.9583 18.6665H15.1667V16.1666L26 17V18.6665H23.6167L24.375 20.8331H34.775L32.5 16.0001L30 10.9998L28.5 14.4998L27 10V9L29.5 8.00012H32.5C32.5 8.00012 32.5 8.00012 33.5 9.49992C34.5 11.0001 35 12 35.5 12.9999L39.4333 20.7248H41.1667C44.1639 20.7248 46.7188 21.7811 48.8313 23.8935C50.9438 26.006 52 28.561 52 31.5581C52 34.5914 50.9528 37.1735 48.8583 39.304C46.7639 41.4345 44.2 42.4998 41.1667 42.4998C38.5667 42.4998 36.2826 41.6873 34.3146 40.0623C32.3465 38.4373 31.0917 36.3609 30.55 33.8331H21.45C20.9444 36.3247 19.7167 38.3922 17.7667 40.0352C15.8167 41.6782 13.5056 42.4998 10.8333 42.4998ZM10.8333 38.1665C12.3139 38.1665 13.5868 37.7602 14.6521 36.9477C15.7174 36.1352 16.4667 35.097 16.9 33.8331H10.5V30.9081L16.9 29.4998C16.4667 28.1998 15.7174 27.1526 14.6521 26.3581C13.5868 25.5637 12.3139 25.1665 10.8333 25.1665C8.99167 25.1665 7.44792 25.7894 6.20208 27.0352C4.95625 28.281 4.33333 29.8248 4.33333 31.6665C4.33333 33.472 4.95625 35.0068 6.20208 36.2706C7.44792 37.5345 8.99167 38.1665 10.8333 38.1665ZM27.5167 29.4998H30.55C30.7306 28.6693 30.9743 27.8928 31.2813 27.1706C31.5882 26.4484 31.9944 25.7803 32.5 25.1665H25.8917L27.5167 29.4998ZM41.1667 38.1665C43.0083 38.1665 44.5521 37.5345 45.7979 36.2706C47.0438 35.0068 47.6667 33.472 47.6667 31.6665C47.6667 29.8248 47.0438 28.281 45.7979 27.0352C44.5521 25.7894 43.0083 25.1665 41.1667 25.1665H40.95L43.1167 30.9081L39 32.4248L36.9417 26.6831C36.2194 27.297 35.6597 28.0193 35.2625 28.8498C34.8653 29.6803 34.6667 30.6193 34.6667 31.6665C34.6667 33.472 35.2896 35.0068 36.5354 36.2706C37.7813 37.5345 39.325 38.1665 41.1667 38.1665Z" fill="#FF6F1E"/>
</g>
</svg>
