<svg width="52" height="52" viewBox="0 0 52 52" fill="none" xmlns="http://www.w3.org/2000/svg">
<g id="sell">
<mask id="mask0_333_10170" style="mask-type:alpha" maskUnits="userSpaceOnUse" x="0" y="0" width="52" height="52">
<rect id="Bounding box" width="52" height="52" fill="#D9D9D9"/>
</mask>
<g mask="url(#mask0_333_10170)">
<path id="sell_2" d="M29.1715 39.194C28.6341 39.7313 27.9683 40 27.174 40C26.3796 40 25.7138 39.7313 25.1765 39.194L12.8411 26.8586C12.5841 26.6016 12.3796 26.2979 12.2278 25.9474C12.0759 25.597 12 25.2232 12 24.826V14.8035C12 14.0325 12.2745 13.3725 12.8235 12.8235C13.3725 12.2745 14.0325 12 14.8035 12H24.826C25.2232 12 25.597 12.0759 25.9474 12.2278C26.2979 12.3796 26.6016 12.5841 26.8586 12.8411L39.194 25.2115C39.7313 25.7489 40 26.4088 40 27.1915C40 27.9741 39.7313 28.6341 39.194 29.1715L29.1715 39.194ZM27.174 37.2315L37.1965 27.209L24.826 14.8035H14.8035V24.826L27.174 37.2315ZM18.3079 20.4105C18.8919 20.4105 19.3884 20.2061 19.7972 19.7972C20.2061 19.3884 20.4105 18.8919 20.4105 18.3079C20.4105 17.7238 20.2061 17.2274 19.7972 16.8185C19.3884 16.4097 18.8919 16.2053 18.3079 16.2053C17.7238 16.2053 17.2274 16.4097 16.8185 16.8185C16.4097 17.2274 16.2053 17.7238 16.2053 18.3079C16.2053 18.8919 16.4097 19.3884 16.8185 19.7972C17.2274 20.2061 17.7238 20.4105 18.3079 20.4105Z" fill="#453E38"/>
</g>
</g>
</svg>
