<svg width="52" height="52" viewBox="0 0 52 52" fill="none" xmlns="http://www.w3.org/2000/svg">
<g id="shopping_cart">
<mask id="mask0_334_10177" style="mask-type:alpha" maskUnits="userSpaceOnUse" x="0" y="0" width="52" height="52">
<rect id="Bounding box" width="52" height="52" fill="#D9D9D9"/>
</mask>
<g mask="url(#mask0_334_10177)">
<path id="shopping_cart_2" d="M20.4078 40C19.6371 40 18.9773 39.7258 18.4284 39.1775C17.8796 38.6292 17.6052 37.97 17.6052 37.2C17.6052 36.43 17.8796 35.7708 18.4284 35.2225C18.9773 34.6742 19.6371 34.4 20.4078 34.4C21.1785 34.4 21.8383 34.6742 22.3871 35.2225C22.9359 35.7708 23.2104 36.43 23.2104 37.2C23.2104 37.97 22.9359 38.6292 22.3871 39.1775C21.8383 39.7258 21.1785 40 20.4078 40ZM34.4207 40C33.65 40 32.9902 39.7258 32.4414 39.1775C31.8925 38.6292 31.6181 37.97 31.6181 37.2C31.6181 36.43 31.8925 35.7708 32.4414 35.2225C32.9902 34.6742 33.65 34.4 34.4207 34.4C35.1914 34.4 35.8512 34.6742 36.4 35.2225C36.9489 35.7708 37.2233 36.43 37.2233 37.2C37.2233 37.97 36.9489 38.6292 36.4 39.1775C35.8512 39.7258 35.1914 40 34.4207 40ZM19.2167 17.6L22.5798 24.6H32.3888L36.2424 17.6H19.2167ZM17.8854 14.8H38.5545C39.0917 14.8 39.5004 15.0392 39.7807 15.5175C40.0609 15.9958 40.0726 16.48 39.8157 16.97L34.8411 25.93C34.5842 26.3967 34.2397 26.7583 33.8076 27.015C33.3756 27.2717 32.9026 27.4 32.3888 27.4H21.9492L20.4078 30.2H37.2233V33H20.4078C19.3568 33 18.5627 32.5392 18.0256 31.6175C17.4884 30.6958 17.465 29.78 17.9555 28.87L19.8472 25.44L14.8026 14.8H12V12H16.5542L17.8854 14.8Z" fill="#453E38"/>
</g>
</g>
</svg>
