<svg width="55" height="60" viewBox="0 0 55 60" fill="none" xmlns="http://www.w3.org/2000/svg">
<mask id="mask0_88_172" style="mask-type:alpha" maskUnits="userSpaceOnUse" x="0" y="7" width="52" height="53">
<rect y="7.11719" width="52" height="52.8814" fill="#D9D9D9"/>
</mask>
<g mask="url(#mask0_88_172)">
<path d="M25.6174 17.5379C24.2855 17.5379 23.1453 17.0277 22.1969 16.0074C21.2484 14.987 20.7742 13.7604 20.7742 12.3276C20.7742 10.8947 21.2484 9.6681 22.1969 8.64773C23.1453 7.62737 24.2855 7.11719 25.6174 7.11719C26.9492 7.11719 28.0894 7.62737 29.0378 8.64773C29.9863 9.6681 30.4605 10.8947 30.4605 12.3276C30.4605 13.7604 29.9863 14.987 29.0378 16.0074C28.0894 17.0277 26.9492 17.5379 25.6174 17.5379ZM18.3527 59.2209V25.3535H3.82324V20.1431H47.4115V25.3535H32.8821V59.2209H28.0389V43.5898H23.1958V59.2209H18.3527Z" fill="#FF6F1E"/>
</g>
<mask id="path-3-inside-1_88_172" fill="white">
<path d="M34 0H55V58.9831H34V0Z"/>
</mask>
<path d="M55 0H57V-2H55V0ZM34 2H55V-2H34V2ZM53 0V58.9831H57V0H53Z" fill="#FF6F1E" mask="url(#path-3-inside-1_88_172)"/>
</svg>
