<svg width="52" height="53" viewBox="0 0 52 53" fill="none" xmlns="http://www.w3.org/2000/svg">
<mask id="mask0_73_384" style="mask-type:alpha" maskUnits="userSpaceOnUse" x="0" y="0" width="52" height="53">
<rect y="0.117188" width="52" height="52.8814" fill="#D9D9D9"/>
</mask>
<g mask="url(#mask0_73_384)">
<path d="M25.6174 10.5379C24.2855 10.5379 23.1453 10.0277 22.1969 9.00738C21.2484 7.98702 20.7742 6.76041 20.7742 5.32756C20.7742 3.8947 21.2484 2.6681 22.1969 1.64773C23.1453 0.627369 24.2855 0.117188 25.6174 0.117188C26.9492 0.117188 28.0894 0.627369 29.0378 1.64773C29.9863 2.6681 30.4605 3.8947 30.4605 5.32756C30.4605 6.76041 29.9863 7.98702 29.0378 9.00738C28.0894 10.0277 26.9492 10.5379 25.6174 10.5379ZM18.3527 52.2209V18.3535H3.82324V13.1431H47.4115V18.3535H32.8821V52.2209H28.0389V36.5898H23.1958V52.2209H18.3527Z" fill="#FF6F1E"/>
</g>
</svg>
